<svg width="334" height="450" viewBox="0 0 334 450" fill="none" xmlns="http://www.w3.org/2000/svg">
<path fill-rule="evenodd" clip-rule="evenodd" d="M-61.2382 119.034L-61.0872 119.061L-61.0652 119.078L-61.0836 119.059L-61.0872 119.061L-61.1056 119.042C-61.152 119.006 -61.2004 118.997 -61.2382 119.034ZM-27.5413 121.579C-25.8636 121.751 -24.1802 121.909 -22.4996 122.048C-20.2283 122.231 -17.9566 122.376 -15.6644 122.46C-13.9661 122.518 -12.3057 122.734 -10.6618 123.025C-7.00662 123.68 -3.44257 124.721 0.309854 125.059C3.69803 125.36 7.27476 124.42 10.7763 124.367C11.9267 124.35 13.0704 124.423 14.2072 124.638C9.61584 122.772 4.72017 120.674 0.0627771 119.245C-2.501 118.451 -4.98117 117.868 -7.29364 117.671C-9.31702 118.157 -11.339 118.652 -13.3811 119.103C-16.3125 119.749 -19.496 120.062 -22.7696 120.199C-24.3649 120.662 -25.9564 121.139 -27.5413 121.579M29.2745 129.337L31.2 129.935C34.6162 130.983 38.046 131.99 41.5022 132.936C42.7947 133.291 44.0657 133.715 45.3184 134.188C50.0831 135.991 54.5933 138.5 59.4604 140.063C64.9294 141.816 71.453 142.906 77.51 144.753C74.674 143.095 71.8921 141.31 68.8215 140.144C66.1727 139.128 63.4587 138.164 60.7176 137.228C56.6179 135.819 52.4679 134.483 48.3893 133.234C46.7557 132.729 45.1093 132.313 43.4567 131.949C38.7541 130.911 33.9835 130.27 29.2745 129.337M-49.5767 122.175C-41.5348 123.23 -33.1358 124.085 -30.7685 124.741C-24.4378 126.487 -17.7515 126.792 -11.3095 128.144C-9.6476 128.492 -8.00123 128.908 -6.37439 129.433C5.0278 133.098 16.5542 136.47 28.0317 140.046C32.9536 141.582 37.87 143.148 42.7593 144.796C45.38 145.672 47.9624 146.676 50.5314 147.736C56.4328 150.172 62.244 152.92 68.132 155.17C70.4485 156.056 72.6678 157.206 74.8096 158.51C79.6079 161.411 84.0556 165.085 88.6076 168.126C93.2742 171.24 97.8469 174.478 102.23 177.952C106.637 181.453 110.855 185.191 114.789 189.296C116.795 191.392 118.576 193.614 120.233 195.894C124.019 201.1 127.171 206.642 131.183 211.739C143.028 226.914 153.377 242.96 165.566 257.337C173.585 266.789 182.395 275.527 193.04 282.754C198.559 286.503 204.119 289.975 209.764 293.282C212.597 294.936 215.449 296.556 218.332 298.144C210.162 292.556 202.919 286.568 197.424 280.566C192.556 275.238 188.052 269.583 183.745 263.755C173.82 250.35 164.906 236.057 154.648 223.009C150.024 217.105 146.628 210.269 142.375 204.086C141.354 202.601 140.279 201.153 139.12 199.774C135.47 195.409 131.028 191.758 127.083 187.646C126.048 186.567 125.047 185.459 124.098 184.299C123.632 183.734 123.198 183.148 122.779 182.545C121.271 180.373 120.006 178.005 118.318 175.978C115.876 173.048 112.999 170.541 109.914 168.258C102.391 162.712 93.6447 158.477 86.4707 153.212C84.2294 151.56 81.6183 150.317 78.843 149.294C72.166 146.836 64.5739 145.638 58.3717 143.575C54.0499 142.135 50.0136 139.973 45.8343 138.192C44.1313 137.466 42.4042 136.804 40.6213 136.298C37.1328 135.305 33.684 134.248 30.2452 133.152C25.095 131.516 19.9793 129.792 14.8542 128.086C13.5445 127.652 12.2058 127.519 10.8422 127.525C7.24234 127.536 3.54806 128.436 0.0651105 128.09C-3.77496 127.701 -7.40854 126.614 -11.1478 125.906C-12.6495 125.622 -14.1752 125.402 -15.7366 125.329C-24.4648 124.936 -32.9623 123.605 -41.5455 122.751C-43.8076 122.604 -46.0386 122.388 -48.1383 122.239C-48.6156 122.205 -49.0975 122.181 -49.5767 122.175M34.4657 112.004C39.3915 113.431 44.1601 115.126 49.2584 116.513C61.2678 119.782 72.7907 122.792 83.923 126.38C91.6428 128.865 99.1884 131.608 106.571 134.861C111.306 136.949 115.977 139.241 120.593 141.788C111.017 135.066 101.665 129.449 91.8577 124.871C81.9532 120.245 71.5819 116.673 59.9965 114.151C58.952 113.924 57.9264 113.854 56.9033 113.856C54.1519 113.864 51.4457 114.332 48.6764 114.04C44.6299 113.62 40.9607 112.314 37.2629 112.001C36.3382 111.924 35.4076 111.915 34.4657 112.004M87.8753 149.365C88.1825 149.564 88.4827 149.768 88.777 149.987C95.9946 155.2 104.792 159.358 112.344 164.877C115.73 167.348 118.865 170.083 121.545 173.271C122.013 173.839 122.458 174.419 122.886 175.02C124.421 177.185 125.695 179.557 127.372 181.607C128.249 182.68 129.172 183.704 130.128 184.7C134.127 188.891 138.63 192.622 142.341 197.066C143.582 198.557 144.737 200.113 145.831 201.717C150.016 207.842 153.322 214.63 157.874 220.483C168.076 233.627 176.936 248 186.796 261.504C190.994 267.249 195.366 272.836 200.116 278.093C209.135 288.082 223.062 298.02 237.981 306.169C252.914 314.324 268.84 320.685 281.892 323.463C282.886 323.671 283.869 323.914 284.852 324.167C283.002 323.496 281.241 322.831 279.606 322.195C277.91 321.533 276.302 320.662 274.738 319.681C271.364 317.567 268.236 314.928 264.843 312.992C258.86 309.565 252.674 306.126 246.702 302.432C242.658 299.933 238.715 297.305 234.99 294.504C231.706 292.026 228.601 289.223 225.629 286.222C218.938 279.47 212.87 271.776 206.393 265.182C203.505 262.202 200.088 259.451 197.056 256.454C195.678 255.085 194.372 253.677 193.224 252.169C191.915 250.46 190.735 248.647 189.629 246.766C185.441 239.649 182.377 231.582 177.383 225.047C175.474 222.55 173.337 220.264 171.068 218.107C165.652 212.949 159.557 208.447 154.286 203.215C152.557 201.518 151.049 199.589 149.638 197.566C146.505 193.079 143.867 188.08 140.342 184.024C137.566 180.85 134.36 177.99 130.952 175.319C122.924 169.024 113.745 163.746 105.994 157.788C103.524 155.882 100.673 154.377 97.6919 153.074C94.4759 151.676 91.1163 150.504 87.8753 149.365M1.48701 115.845C9.08126 118.125 17.2684 122.089 23.7222 123.914C30.4534 125.826 37.4467 126.383 44.2795 127.834C46.0515 128.211 47.8187 128.649 49.5635 129.176C53.006 130.217 56.5084 131.306 59.975 132.472C63.4647 133.649 66.9283 134.902 70.2846 136.214C71.4045 136.663 72.4882 137.174 73.5476 137.733C77.4569 139.803 81.0368 142.562 85.1263 144.184C89.5569 145.955 94.5041 147.611 99.1369 149.749C102.352 151.238 105.427 152.957 108.081 155.09C115.706 161.21 124.763 166.684 132.667 173.128C136.159 175.974 139.432 179.004 142.265 182.361C145.802 186.524 148.412 191.643 151.579 196.217C152.896 198.121 154.313 199.918 155.935 201.514C161.258 206.669 167.385 211.095 172.875 216.154C175.282 218.374 177.575 220.716 179.626 223.288C180.965 224.965 182.182 226.748 183.316 228.593C187.684 235.648 190.9 243.646 195.98 250.016C197.051 251.361 198.271 252.623 199.558 253.844C202.67 256.796 206.163 259.498 209.132 262.427C215.682 268.945 221.884 276.519 228.594 283.237C231.434 286.086 234.363 288.79 237.471 291.157C241.078 293.918 244.9 296.493 248.814 298.972C254.711 302.702 260.811 306.2 266.72 309.673C270.132 311.681 273.28 314.38 276.667 316.565C278.025 317.44 279.42 318.232 280.899 318.833C283.766 320.004 287.041 321.266 290.488 322.504C280.541 315.322 271.553 306.147 264.77 299.796C262.774 297.926 260.709 296.14 258.596 294.413C249.993 287.35 240.691 281.189 232.349 273.802C229.712 271.451 227.204 268.905 224.777 266.27C221.224 262.409 217.833 258.356 214.316 254.548C211.594 251.58 208.983 248.497 206.459 245.343C196.521 232.915 187.784 219.371 177.189 207.563C175.498 205.676 173.754 203.842 171.972 202.044C164.775 194.771 157.04 188.03 150.11 180.486C148.031 178.255 146.303 175.622 144.38 173.219C143.584 172.233 142.759 171.288 141.852 170.438C139.904 168.608 137.834 166.974 135.697 165.439C132.422 163.098 129.003 160.988 125.623 158.752C118.272 153.896 107.016 147.787 95.4848 142.287C83.9853 136.802 72.2188 131.936 63.7961 129.58C56.7752 127.562 49.4557 127.189 42.3576 125.653C40.5033 125.249 38.663 124.766 36.8433 124.169C30.2353 121.97 24.5996 118.905 18.446 116.987C14.694 115.813 10.7365 115.088 6.18575 115.341C4.59866 115.428 3.03261 115.606 1.48701 115.845M325.378 329.244C325.337 329.23 325.226 329.201 325.17 329.188C325.242 329.201 325.311 329.216 325.378 329.244L325.392 329.25L325.39 329.246L325.378 329.244ZM19.9414 113.225C25.9941 115.096 31.5711 118.054 38.0942 120.154C39.7757 120.704 41.4814 121.138 43.1943 121.513C50.3809 123.078 57.7758 123.551 64.8797 125.628C73.4197 128.198 85.3367 133.372 96.9525 139.2C108.515 144.996 119.777 151.417 127.115 156.484C130.478 158.801 133.889 160.989 137.148 163.4C139.356 165.028 141.491 166.749 143.495 168.683C144.478 169.619 145.368 170.65 146.229 171.729C148.108 174.093 149.8 176.672 151.842 178.86C158.85 186.28 166.64 192.909 173.944 200.04C175.783 201.845 177.601 203.671 179.366 205.559C190.235 217.183 199.309 230.565 209.497 242.852C212.022 245.894 214.603 248.871 217.313 251.732C221.44 256.136 225.432 260.85 229.648 265.261C231.424 267.126 233.236 268.945 235.133 270.641C242.32 277.133 250.261 282.68 257.805 288.728C261.095 291.366 264.305 294.102 267.36 297.04C275.829 305.202 287.83 318.069 300.898 325.378C301.705 325.833 302.524 326.268 303.344 326.672C307.498 327.863 311.525 328.825 315.047 329.372C317.209 329.71 319.092 329.994 320.83 329.95C322.021 329.916 323.145 329.732 324.249 329.261C324.59 329.114 325.336 329.236 325.39 329.246C325.662 329.348 325.885 329.526 326.055 329.747C326.263 329.682 326.478 329.612 326.687 329.54C326.63 329.374 326.607 329.189 326.621 328.973C326.347 328.867 326.075 328.765 325.811 328.674C324.569 328.262 323.339 327.8 322.117 327.31C320.322 326.596 318.545 325.832 316.769 325.114C314.454 324.184 312.19 323.023 309.952 321.733C304.954 318.849 300.129 315.316 295.39 312.394C289.411 308.721 284.009 304.442 278.93 299.806C267.249 289.148 257.297 276.623 245.703 265.62C241.672 261.71 237.839 257.667 234.131 253.523C225.532 243.896 217.572 233.79 208.974 224.042C204.492 218.959 199.77 214.123 194.909 209.452C189.204 203.96 183.335 198.651 177.439 193.372C171.518 188.072 165.559 182.815 159.847 177.291C155.133 172.772 150.665 167.838 145.816 163.38C143.771 161.501 141.663 159.713 139.438 158.076C128.152 149.767 116.707 143.683 104.98 138.684C97.6743 135.579 90.2622 132.891 82.6785 130.412C71.6167 126.796 60.2078 123.585 48.2933 120.186C42.9818 118.668 38.0427 116.811 32.9004 115.27C30.7681 114.625 28.6043 114.034 26.3595 113.547C24.73 113.193 22.521 113.115 19.9414 113.225M130.111 147.47C133.895 149.907 137.652 152.548 141.395 155.427C143.679 157.187 145.836 159.099 147.923 161.107C152.69 165.696 157.062 170.744 161.693 175.38C167.305 180.957 173.105 186.335 178.993 191.61C184.907 196.908 190.887 202.119 196.711 207.523C201.705 212.165 206.61 216.922 211.26 221.967C220.068 231.506 228.28 241.39 237.046 250.847C240.754 254.854 244.559 258.795 248.575 262.578C260.071 273.66 269.953 286.207 281.501 296.984C286.359 301.514 291.502 305.741 297.228 309.383C301.902 312.365 306.639 315.96 311.568 318.913C313.645 320.161 315.758 321.295 317.918 322.2C319.687 322.944 321.446 323.737 323.224 324.479C323.517 324.604 323.811 324.722 324.107 324.845C322.706 323.718 321.167 322.757 320.259 322.05C316.307 318.999 312.068 316.302 308.074 313.282C306.314 311.95 304.599 310.561 302.979 309.058C301.183 307.392 299.552 305.59 298.012 303.709C294.555 299.485 291.55 294.878 287.941 290.791C281.097 282.992 271.568 277.645 263.991 270.53C261.978 268.644 260.108 266.628 258.434 264.439C251.962 255.799 247.518 245.905 241.653 236.838C240.235 234.645 238.735 232.494 237.094 230.435C234.837 227.603 232.31 225.144 229.639 222.88C223.125 217.358 215.815 212.939 209.544 207.059C204.198 202.137 198.734 197.245 193.105 192.547C187.485 187.863 181.695 183.382 175.851 179.082C173.244 177.17 170.342 175.622 167.636 173.832C166.398 173.015 165.212 172.152 164.093 171.195C161.479 168.961 159.345 166.176 156.948 163.669C156.004 162.675 155.015 161.738 153.933 160.909C151.974 159.404 149.902 158.057 147.777 156.783C142.101 153.387 135.981 150.584 130.111 147.47M-61.1388 122.788C-63.011 122.396 -64.5415 121.995 -65.5537 121.572C-66.4687 121.197 -67.041 120.738 -67.3125 120.34C-67.5581 119.971 -67.5715 119.594 -67.446 119.243C-67.3801 119.049 -67.2165 118.676 -66.6817 118.511C-66.6376 118.491 -66.5323 118.46 -66.3627 118.453C-66.3218 118.451 -66.234 118.448 -66.1135 118.455C-65.5935 118.458 -64.2969 118.531 -64.1953 118.555L-62.5073 118.826C-62.1966 118.711 -61.8443 118.693 -61.5024 118.821C-61.3593 118.875 -61.2254 118.946 -61.1056 119.042L-61.0946 119.05L-61.0836 119.059L-60.5716 119.142L-60.4324 119.183C-60.2919 119.164 -60.149 119.15 -60.0082 119.147C-55.3968 118.974 -44.2611 117.002 -39.9479 116.909C-35.0932 116.804 -29.5961 116.994 -24.2697 116.763C-23.7297 116.742 -23.1825 116.716 -22.6464 116.682C-21.1687 116.232 -19.6823 115.802 -18.1804 115.425C-15.4077 114.726 -12.5798 114.205 -9.66488 114.068C-9.1899 114.045 -8.71213 114.041 -8.22198 114.054C-6.27572 113.564 -4.34014 113.082 -2.38878 112.667C0.330888 112.09 3.07609 111.647 5.89841 111.453C6.58355 111.405 7.25831 111.381 7.92378 111.373L9.29128 111.137C16.5045 109.965 23.2214 109.387 27.017 110.145C27.7723 110.297 28.5194 110.46 29.2618 110.632C32.0695 109.269 34.7585 108.966 37.4329 109.144C41.1533 109.383 44.8547 110.614 48.9238 110.96C51.586 111.189 54.1778 110.663 56.8199 110.604C58.0759 110.573 59.3411 110.645 60.6233 110.902C72.5259 113.273 83.2199 116.732 93.426 121.328C103.63 125.921 113.343 131.664 123.338 138.533C130.458 143.559 138.733 147.117 146.393 151.515C149.808 153.474 153.093 155.602 156.132 158.054C157.342 159.028 158.448 160.126 159.489 161.275C161.749 163.761 163.735 166.521 166.207 168.749C167.203 169.643 168.261 170.452 169.365 171.219C172.069 173.105 174.97 174.75 177.566 176.754C182.2 180.324 186.759 184.058 191.29 187.837C198.07 193.491 204.761 199.292 211.213 205.212C217.589 210.924 224.964 215.155 231.573 220.495C234.462 222.829 237.206 225.365 239.67 228.312C241.442 230.423 243.078 232.618 244.609 234.875C250.621 243.728 255.175 253.461 261.757 261.887C263.287 263.891 265.019 265.723 266.852 267.458C274.487 274.692 284 280.283 290.842 288.247C294.425 292.432 297.396 297.12 300.814 301.44C302.224 303.211 303.702 304.928 305.352 306.505C306.862 307.957 308.463 309.304 310.103 310.592C314.049 313.689 318.245 316.474 322.148 319.6C323.561 320.729 326.391 322.523 328.076 324.515C328.723 325.271 329.209 326.07 329.481 326.88L330.673 327.326C330.436 327.274 329.704 327.497 329.704 327.497C329.704 327.497 332.541 327.954 332.083 329.128C331.877 329.668 331.389 330.007 330.847 330.04C330.571 330.137 330.277 330.214 330.123 330.183C329.973 330.15 329.817 330.116 329.66 330.072C329.756 330.454 329.68 330.845 329.472 331.154C329.673 331.945 329.134 333.033 329.038 333.084C328.996 333.108 328.755 333.239 328.322 333.254C327.979 333.27 326.751 333.266 326.257 333.292L322.289 333.579C320.475 333.697 318.535 333.77 316.601 333.744C314.63 333.728 312.659 333.606 310.833 333.341C304.404 332.418 297.911 331.472 291.496 330.265C287.177 329.452 282.888 328.524 278.669 327.399C274.349 326.244 270.075 324.888 265.828 323.427C259.517 321.26 253.263 318.878 246.996 316.638C245.065 315.949 242.957 315.552 240.967 314.93C239.998 314.63 239.063 314.28 238.175 313.845C237.244 313.386 236.339 312.883 235.443 312.353C232.061 310.366 228.878 307.966 225.408 306.163C219.454 303.065 213.627 299.916 207.887 296.601C202.144 293.282 196.492 289.8 190.877 286.034C179.872 278.645 170.721 269.73 162.441 260.015C150.169 245.633 139.814 229.517 127.928 214.291C123.916 209.125 120.773 203.52 116.989 198.248C115.452 196.096 113.807 194.002 111.942 192.024C108.175 188.015 104.125 184.351 99.8915 180.926C95.6237 177.465 91.1704 174.24 86.6208 171.134C82.7629 168.5 78.9825 165.399 75.0021 162.718C72.4368 160.994 69.7847 159.442 66.9581 158.322C61.0638 156.003 55.25 153.183 49.3485 150.678C46.8552 149.613 44.3475 148.61 41.8024 147.729C36.9521 146.038 32.0781 144.427 27.189 142.847C15.7382 139.158 4.23594 135.668 -7.1396 131.889C-8.66981 131.382 -10.2281 130.978 -11.7996 130.632C-18.2849 129.225 -25.0155 128.872 -31.3809 127.075C-34.6027 126.177 -49.186 124.897 -58.5414 123.273L-58.6588 123.302C-58.9929 123.391 -59.7346 123.441 -60.1843 123.341C-60.628 123.242 -60.949 123.016 -61.1388 122.788" fill="#E8DDCD"/>
<path fill-rule="evenodd" clip-rule="evenodd" d="M224.816 155.019L224.836 155.016C225.727 154.892 226.553 155.511 226.68 156.399C226.804 157.29 226.184 158.113 225.293 158.239C224.969 158.285 224.325 158.259 224.025 158.123C223.209 157.748 222.849 156.782 223.223 155.965C223.514 155.333 224.16 154.977 224.816 155.019ZM242.826 155.224C242.813 155.217 242.802 155.212 242.789 155.206C241.989 154.794 241.004 155.108 240.593 155.904C240.178 156.704 240.493 157.685 241.293 158.099C241.304 158.104 241.317 158.11 241.33 158.117C242.13 158.527 243.115 158.213 243.526 157.417C243.939 156.617 243.624 155.636 242.826 155.224M215.986 161.924C215.974 161.919 215.961 161.915 215.95 161.911C215.937 161.908 215.924 161.904 215.913 161.9L215.986 161.924ZM252.041 162.305C252.045 162.31 252.049 162.314 252.051 162.318C252.591 163.038 253.615 163.184 254.334 162.646C255.056 162.109 255.202 161.087 254.661 160.369C254.659 160.365 254.656 160.362 254.652 160.356C254.113 159.637 253.091 159.491 252.371 160.029C251.649 160.567 251.503 161.588 252.041 162.305M229.015 160.836C229.789 160.555 230.669 160.897 231.037 161.653C231.433 162.458 231.1 163.433 230.289 163.829C230.183 163.879 230.074 163.915 229.961 163.951C229.102 164.218 228.187 163.744 227.917 162.887C227.647 162.03 228.125 161.115 228.984 160.845L229.015 160.836ZM216.911 162.774C217.074 163.127 217.113 163.537 216.987 163.936C216.722 164.793 215.808 165.275 214.947 165.007C213.941 164.697 213.616 163.943 213.579 163.415C213.551 163.042 213.588 162.453 214.269 161.88C214.956 161.302 215.986 161.389 216.567 162.074C216.743 162.284 216.858 162.523 216.911 162.774ZM240.412 163.045C241.202 163.127 241.835 163.775 241.872 164.592C241.913 165.487 241.215 166.248 240.317 166.289C239.939 166.306 239.973 166.304 239.588 166.193C238.725 165.938 238.229 165.033 238.482 164.172C238.729 163.343 239.578 162.853 240.412 163.045ZM206.257 163.858C206.25 163.856 206.243 163.853 206.235 163.851C205.389 163.546 204.454 163.986 204.148 164.83C203.841 165.674 204.28 166.607 205.126 166.91C205.133 166.913 205.141 166.915 205.148 166.919C205.994 167.224 206.929 166.786 207.237 165.942C207.542 165.098 207.104 164.163 206.257 163.858M226.658 168.356C226.536 168.146 226.395 168.001 226.256 167.902C226.336 167.963 226.412 168.033 226.478 168.11C226.547 168.186 226.606 168.267 226.658 168.356L226.664 168.365C226.662 168.364 226.66 168.36 226.658 168.356ZM250.103 167.453C250.049 167.355 250.027 167.248 249.981 167.146C249.607 166.33 248.638 165.97 247.82 166.343C247 166.714 246.638 167.68 247.012 168.498C247.09 168.67 247.148 168.844 247.238 169.012C247.67 169.801 248.662 170.092 249.453 169.662C250.242 169.232 250.534 168.242 250.103 167.453ZM224.003 168.142C224.018 168.114 224.034 168.09 224.047 168.073C224.592 167.359 225.617 167.218 226.332 167.761C227.051 168.304 227.189 169.326 226.645 170.043C226.706 169.963 226.819 169.745 226.819 169.745C226.819 169.745 226.091 170.619 225.884 170.704C225.479 170.868 225.069 170.872 224.651 170.702C224.416 170.606 224.097 170.436 223.846 170.002C223.49 169.394 223.575 168.652 224.003 168.142M215.545 172.045L215.517 172.074C215.525 172.067 215.545 172.045 215.545 172.045ZM236.234 172.527C236.244 172.534 236.253 172.546 236.262 172.555C236.855 173.229 237.888 173.295 238.562 172.701C239.238 172.108 239.302 171.079 238.708 170.405C238.701 170.394 238.691 170.384 238.682 170.375C238.088 169.701 237.055 169.636 236.381 170.229C235.705 170.824 235.64 171.851 236.234 172.527M259.15 171.204C259.14 171.228 259.129 171.254 259.12 171.28C258.8 172.119 259.218 173.061 260.057 173.382C260.897 173.704 261.844 173.286 262.166 172.448C262.175 172.422 262.186 172.396 262.194 172.372C262.518 171.531 262.099 170.591 261.259 170.268C260.418 169.947 259.474 170.366 259.15 171.204M215.545 172.045C216.147 171.404 217.156 171.356 217.819 171.941C218.398 172.457 218.522 173.294 218.163 173.942C218.03 174.225 217.815 174.472 217.524 174.646C216.754 175.108 215.75 174.858 215.288 174.088C214.919 173.473 215.525 172.089 215.545 172.045M202.397 174.141C202.389 174.147 202.38 174.154 202.371 174.162C201.684 174.742 201.597 175.769 202.176 176.454C202.76 177.141 203.789 177.226 204.478 176.648C204.485 176.641 204.493 176.631 204.502 176.624C205.189 176.046 205.276 175.019 204.696 174.332C204.113 173.646 203.086 173.56 202.397 174.141ZM270.631 175.255C270.622 175.253 270.611 175.252 270.603 175.25C269.718 175.078 268.861 175.654 268.689 176.535C268.519 177.418 269.096 178.274 269.979 178.445C269.989 178.447 269.998 178.449 270.009 178.451C270.894 178.621 271.751 178.046 271.922 177.163C272.092 176.282 271.516 175.427 270.631 175.255M250.945 177.441C250.951 177.42 250.956 177.398 250.964 177.378C251.227 176.521 250.742 175.608 249.881 175.348C249.02 175.084 248.107 175.569 247.846 176.428C247.838 176.449 247.833 176.469 247.825 176.489C247.562 177.348 248.048 178.259 248.908 178.521C249.771 178.783 250.682 178.3 250.945 177.441M230.015 179.932C229.948 179.971 229.885 180.001 229.826 180.028C229.337 180.241 228.848 180.23 228.397 180.041C228.065 179.905 227.738 179.653 227.501 179.279C227.177 178.763 227.025 177.943 227.364 177.182C227.71 176.399 228.254 176.096 228.732 175.972C229.061 175.885 229.41 175.894 229.743 175.987C230.457 176.05 231.056 176.576 231.198 177.287C231.428 177.869 231.394 178.517 231.104 179.033C230.904 179.382 230.582 179.74 230.015 179.932ZM260.261 183.087C260.186 183.045 260.098 183.001 259.986 182.96C260.112 183.008 260.231 183.071 260.336 183.145C260.373 183.171 260.412 183.202 260.448 183.233C260.499 183.283 260.549 183.331 260.549 183.331C260.549 183.331 260.535 183.307 260.498 183.27C260.448 183.226 260.394 183.182 260.336 183.145L260.261 183.087ZM239.686 178.961C240.199 178.795 240.765 178.778 241.311 178.968C242.863 179.504 243.287 181.072 242.639 182.539C242.074 183.815 240.702 184.641 239.523 184.377C238.28 184.096 237.699 183.405 237.427 182.733C237.134 182.016 237.203 181.196 237.54 180.505C237.99 179.58 238.895 179.033 239.686 178.961M269.774 184.861C269.705 184.822 269.628 184.791 269.542 184.766C269.457 184.742 269.367 184.726 269.259 184.713C269.444 184.735 269.617 184.785 269.774 184.861ZM196.7 181.693C196.614 181.704 196.657 181.698 196.566 181.708C195.67 181.783 195.003 182.572 195.081 183.466C195.157 184.362 195.948 185.025 196.846 184.949C197.029 184.933 196.938 184.944 197.118 184.92C198.01 184.805 198.64 183.991 198.527 183.098C198.412 182.208 197.594 181.578 196.7 181.693ZM269.896 184.94C269.957 184.996 270.013 185.053 270.065 185.116C270.118 185.177 270.166 185.245 270.213 185.317C270.113 185.154 270.013 185.032 269.896 184.94ZM258.205 185.598C257.583 184.99 257.552 183.991 258.142 183.342C258.694 182.738 259.6 182.644 260.261 183.087C260.383 183.158 260.457 183.226 260.498 183.27C260.986 183.704 261.183 184.41 260.94 185.058C260.622 185.897 259.679 186.322 258.837 186.006C258.363 185.829 258.22 185.62 258.205 185.598M212.877 182.755C213.123 182.799 213.367 182.906 213.614 183.082C214.517 183.73 214.843 184.885 214.573 185.893C214.282 186.974 213.386 187.816 212.103 187.783C211.17 187.761 210.525 187.445 210.077 187.05C209.346 186.405 209.064 185.461 209.146 184.561C209.251 183.409 210.02 182.483 210.629 182.219C211.314 181.92 212.034 181.962 212.695 182.561C212.762 182.622 212.823 182.687 212.877 182.755M269.835 184.892C270.413 185.195 270.772 185.83 270.694 186.516C270.592 187.406 269.781 188.049 268.889 187.945C268.154 187.862 267.787 187.604 267.426 187.009C266.958 186.242 267.202 185.241 267.971 184.774C268.572 184.408 269.315 184.478 269.835 184.892ZM221.505 183.937C221.855 183.749 222.288 183.647 222.81 183.697C223.664 183.782 224.221 184.305 224.436 184.964C224.797 185.607 224.919 186.46 224.273 187.399C223.603 188.374 222.244 189.094 221.011 188.479C220.455 188.204 219.937 187.522 219.835 186.802C219.742 186.15 219.896 185.522 220.352 185.075C220.531 184.646 220.818 184.343 221.133 184.131C221.25 184.052 221.376 183.987 221.505 183.937M191.784 186.466H191.632C190.732 186.466 190 187.196 190 188.093C190 188.991 190.732 189.721 191.632 189.721H191.784C192.683 189.721 193.415 188.991 193.415 188.093C193.415 187.196 192.683 186.466 191.784 186.466ZM235.19 189.828C235.17 189.907 235.155 189.983 235.148 190.053C235.14 190.123 235.138 190.188 235.14 190.247C235.138 190.107 235.153 189.966 235.19 189.828M204.598 191.562C204.602 191.546 204.604 191.536 204.604 191.536C204.606 191.52 204.606 191.516 204.606 191.516L204.598 191.562ZM238.14 191.104C238.079 191.254 237.999 191.385 237.912 191.496C237.699 191.771 237.421 191.965 237.068 192.065C236.79 192.146 236.338 192.235 235.751 191.891C234.692 191.265 234.529 190.404 234.601 189.333C234.661 188.437 235.438 187.759 236.338 187.818C236.955 187.859 237.468 188.237 237.71 188.762C238.127 189.015 238.68 189.578 238.329 190.705C238.282 190.849 238.219 190.984 238.14 191.104M204.596 191.577L204.589 191.625C204.445 192.512 203.606 193.116 202.717 192.972C201.83 192.829 201.225 191.993 201.369 191.104C201.404 190.881 201.39 190.964 201.415 190.855C201.632 189.985 202.515 189.451 203.389 189.665C204.245 189.874 204.776 190.722 204.596 191.577M247.133 191.298C246.927 190.602 247.094 189.972 247.357 189.593C247.686 189.117 248.366 188.465 249.721 188.978C249.862 189.032 249.992 189.102 250.108 189.187C250.434 189.283 250.692 189.453 250.88 189.632C251.312 190.038 251.697 190.753 251.332 191.823C251.132 192.406 250.805 192.733 250.503 192.931C250.334 193.042 250.16 193.123 249.982 193.175C249.562 193.367 249.157 193.38 248.814 193.321C248.146 193.212 247.592 192.77 247.314 192.159C247.198 191.898 247.131 191.603 247.133 191.298M263.943 192.621C263.938 192.619 263.932 192.619 263.927 192.619C263.034 192.515 262.221 193.155 262.118 194.047C262.014 194.937 262.655 195.748 263.549 195.851C263.554 195.851 263.56 195.851 263.564 195.853C264.458 195.957 265.269 195.318 265.373 194.427C265.478 193.535 264.836 192.726 263.943 192.621ZM193.441 198.951C193.489 198.997 193.533 199.032 193.574 199.062L193.672 199.127C193.731 199.16 193.763 199.171 193.763 199.171C193.763 199.171 193.702 199.139 193.62 199.091L193.561 199.053C193.539 199.034 193.52 199.018 193.498 199.001L193.441 198.951ZM193.574 199.062C192.837 198.591 192.606 197.616 193.057 196.86C193.518 196.088 194.52 195.839 195.294 196.297C195.689 196.533 195.54 196.443 195.709 196.614C196.338 197.257 196.325 198.288 195.683 198.916C195.131 199.452 194.296 199.52 193.672 199.127C193.643 199.11 193.611 199.09 193.574 199.062ZM255.53 199.138C255.039 199.854 254.061 200.063 253.317 199.598C252.554 199.121 252.323 198.116 252.801 197.355C253 197.037 253.284 196.716 253.615 196.531C254.397 196.086 255.393 196.361 255.837 197.143C256.219 197.809 256.07 198.635 255.53 199.138ZM230.343 198.399C230.237 198.838 230.022 199.215 229.774 199.468C229.167 200.093 228.537 200.172 228.013 200.089C227.626 200.028 227.249 199.851 226.927 199.537C226.582 199.2 226.282 198.628 226.177 198.046C225.969 196.902 226.584 195.936 227.23 195.632C227.582 195.465 228.134 195.31 228.817 195.613C229.384 195.665 229.974 195.984 230.272 196.779C230.557 197.226 230.617 197.8 230.383 198.317L230.343 198.399ZM214.117 199.021C213.821 198.663 213.647 198.21 213.616 197.699C213.582 197.113 213.769 196.424 214.11 195.888C214.602 195.109 215.387 194.701 216.076 194.695C216.667 194.693 217.328 194.9 217.861 195.674C218.007 195.885 218.096 196.119 218.132 196.358C218.326 196.614 218.47 196.943 218.487 197.364C218.559 197.484 218.613 197.608 218.657 197.728C218.828 198.207 218.813 198.709 218.619 199.184C218.241 200.118 216.969 200.905 215.782 200.588C215.182 200.427 214.493 200.021 214.117 199.021M271.063 201.24C271.076 201.242 271.087 201.243 271.094 201.243C271.102 201.245 271.103 201.245 271.103 201.245L271.063 201.24ZM271.052 201.238L270.998 201.23C270.109 201.094 269.496 200.264 269.631 199.378C269.767 198.489 270.6 197.878 271.489 198.013C271.705 198.046 271.624 198.031 271.737 198.057C272.612 198.258 273.16 199.134 272.959 200.008C272.762 200.868 271.913 201.41 271.052 201.238ZM245.144 202.736C245.181 202.73 245.224 202.721 245.276 202.704C245.328 202.692 245.387 202.669 245.459 202.638C245.357 202.682 245.252 202.714 245.144 202.736ZM244.874 202.767C244.22 202.788 243.593 202.413 243.32 201.775C242.969 200.95 243.357 199.995 244.185 199.642C244.472 199.522 244.592 199.52 244.689 199.511C244.826 199.498 245.183 199.538 245.183 199.538C245.183 199.538 245.129 199.524 245.054 199.518C245.95 199.586 246.622 200.37 246.553 201.266C246.487 202.137 245.742 202.795 244.874 202.767ZM208.057 201.506C208.129 201.91 208.05 202.341 207.802 202.706C207.294 203.451 206.28 203.643 205.535 203.139C205.133 202.867 204.776 202.346 204.689 201.685C204.606 201.064 204.806 200.366 204.965 200.102C205.457 199.282 206.187 199.193 206.755 199.313C207.05 199.378 207.774 199.55 208.066 200.619C208.148 200.92 208.14 201.227 208.057 201.506M192.463 204.79C192.432 204.796 192.4 204.803 192.371 204.808C191.487 204.984 190.91 205.839 191.086 206.72C191.26 207.601 192.119 208.174 193 208.002C193.033 207.997 193.065 207.989 193.094 207.984C193.978 207.808 194.554 206.953 194.379 206.072C194.205 205.191 193.346 204.616 192.463 204.79M222.642 204.084C222.785 204.058 222.931 204.049 223.081 204.055C223.544 204.073 224.071 204.23 224.592 204.735C225.003 205.134 225.193 205.569 225.262 205.994C225.362 206.606 225.197 207.237 224.773 207.779C224.368 208.294 223.69 208.717 222.999 208.861C222.412 208.985 221.827 208.918 221.34 208.68C220.446 208.242 220.066 207.612 219.911 207.032C219.739 206.388 219.857 205.728 220.148 205.204C220.463 204.629 220.977 204.247 221.403 204.094C221.837 203.94 222.253 203.953 222.618 204.075L222.642 204.084ZM234.522 203.667C234.927 203.545 235.346 203.528 235.735 203.615C236.399 203.763 237.084 204.184 237.479 205.18C237.749 205.869 237.719 206.491 237.531 207.018C237.308 207.646 236.832 208.165 236.21 208.479L236.209 208.481C235.542 208.944 234.716 209.066 234.033 208.83C233.761 208.736 233.496 208.593 233.263 208.375C232.9 208.154 232.576 207.843 232.331 207.437C231.204 205.586 232.835 203.663 234.522 203.667M260.835 207.04C260.749 206.951 260.677 206.844 260.614 206.741C260.151 205.97 259.148 205.719 258.376 206.183C257.605 206.645 257.354 207.644 257.816 208.414C258.003 208.723 258.233 209.033 258.483 209.295C259.107 209.942 260.14 209.962 260.79 209.34C261.438 208.717 261.458 207.688 260.835 207.04ZM199.451 208.874C199.436 208.891 199.421 208.905 199.408 208.922C198.825 209.606 198.907 210.633 199.592 211.216C200.277 211.798 201.308 211.715 201.891 211.032C201.904 211.017 201.919 211.002 201.932 210.985C202.515 210.302 202.434 209.275 201.749 208.693C201.064 208.109 200.032 208.191 199.451 208.874M250.588 211.551C250.527 212.16 250.123 212.705 249.507 212.923C248.659 213.221 247.725 212.775 247.427 211.929C247.349 211.706 247.359 211.043 247.411 210.814C247.614 209.938 248.492 209.395 249.37 209.598C250.245 209.801 250.792 210.677 250.588 211.551M268.502 213.782L268.489 213.78C267.606 213.603 267.034 212.744 267.209 211.863C267.387 210.984 268.248 210.411 269.131 210.588C269.326 210.627 269.531 210.681 269.715 210.767C270.528 211.154 270.876 212.123 270.491 212.936C270.133 213.686 269.272 214.039 268.502 213.782M211.357 214.151C211.373 213.625 211.525 212.934 211.871 212.413C212.332 211.722 213.034 211.292 213.951 211.342C214.78 211.388 215.432 212.046 215.486 212.851C215.556 213.064 215.591 213.302 215.58 213.564C215.563 213.943 215.41 214.451 215.117 214.898C214.947 215.276 214.68 215.644 214.412 215.868C213.778 216.394 213.073 216.424 212.514 216.194C212.149 216.047 211.74 215.766 211.492 215.14C211.39 214.879 211.34 214.526 211.357 214.151M253.91 217.515C253.986 217.53 254.061 217.552 254.137 217.58C254.211 217.608 254.284 217.639 254.356 217.68C254.2 217.593 254.052 217.541 253.91 217.515ZM237.814 215.415C238.68 215.546 239.291 216.342 239.188 217.218C239.078 218.11 238.266 218.745 237.371 218.638C236.712 218.559 236.083 218.337 235.64 217.794C235.07 217.098 235.175 216.073 235.873 215.505C236.442 215.042 237.232 215.025 237.814 215.415M199.001 215.927H198.995C198.097 215.831 197.296 216.477 197.199 217.371C197.103 218.263 197.751 219.067 198.647 219.163H198.653C199.549 219.257 200.353 218.611 200.447 217.717C200.545 216.824 199.895 216.021 199.001 215.927M228.536 216.85C228.36 216.774 228.184 216.738 228.01 216.662C227.184 216.307 226.223 216.688 225.866 217.512C225.508 218.335 225.89 219.294 226.715 219.651C226.884 219.723 227.056 219.756 227.226 219.83C228.049 220.19 229.013 219.815 229.374 218.993C229.735 218.171 229.36 217.21 228.536 216.85M252.606 217.798C252.919 217.493 253.228 217.43 253.391 217.397C253.737 217.323 254.045 217.366 254.319 217.471C254.717 217.624 255.252 217.992 255.354 218.764C255.556 219.152 255.602 219.617 255.441 220.061C255.139 220.907 254.204 221.346 253.356 221.043C252.565 220.761 252.258 220.314 252.11 219.972C252.027 219.782 251.954 219.549 251.952 219.276C251.915 218.928 251.991 218.568 252.188 218.249C252.301 218.069 252.443 217.918 252.606 217.798M266.406 220.062C266.387 220.05 266.369 220.037 266.352 220.022C265.623 219.494 264.602 219.652 264.071 220.378C263.542 221.104 263.703 222.124 264.43 222.652C264.447 222.665 264.467 222.68 264.486 222.693C265.212 223.221 266.234 223.062 266.763 222.336C267.293 221.61 267.134 220.593 266.406 220.062ZM209.729 220.304C209.686 220.31 209.712 220.306 209.653 220.312C208.757 220.402 208.103 221.2 208.192 222.094C208.283 222.987 209.085 223.639 209.979 223.55C210.166 223.531 210.086 223.541 210.216 223.52C211.108 223.386 211.721 222.556 211.584 221.668C211.449 220.781 210.618 220.17 209.729 220.304ZM220.307 226.186L220.252 226.154C220.27 226.166 220.29 226.175 220.307 226.186ZM219.046 226.3C218.424 225.314 218.75 224.13 219.444 223.531C220.02 223.033 220.907 222.746 221.937 223.367C222.257 223.559 222.486 223.847 222.614 224.169C222.67 224.237 222.72 224.307 222.766 224.383C222.947 224.677 223.275 225.303 222.744 226.23C222.444 226.755 221.99 227.098 221.498 227.255C221.266 227.377 221 227.446 220.718 227.442C219.578 227.427 219.202 226.777 219.046 226.3M259.114 227.69H259.113C259.113 227.69 259.144 227.71 259.159 227.719L259.114 227.69ZM249.951 226.182C250.112 227.054 249.542 227.896 248.668 228.07C247.785 228.247 246.924 227.675 246.75 226.794C246.725 226.679 246.738 226.759 246.711 226.557C246.594 225.665 247.224 224.847 248.114 224.728C249.007 224.612 249.827 225.238 249.945 226.129L249.951 226.182ZM235.218 226.812C235.238 227.084 235.196 227.403 235.061 227.778C234.718 228.724 234.111 228.973 233.761 229.069C233.153 229.236 232.535 229.11 232.028 228.572C231.741 228.27 231.422 227.619 231.45 226.895C231.491 225.804 232.129 224.717 233.607 224.656C234.505 224.618 235.27 225.314 235.307 226.212C235.316 226.422 235.285 226.626 235.218 226.812ZM256.657 229.321C256.646 229.217 256.644 229.114 256.654 229.01C256.663 228.907 256.681 228.8 256.713 228.698C256.644 228.931 256.635 229.136 256.657 229.321M205.232 228.238L205.248 228.162C205.417 227.279 204.837 226.426 203.952 226.256C203.069 226.088 202.214 226.666 202.043 227.547C202.038 227.571 202.034 227.597 202.028 227.625C201.86 228.506 202.438 229.359 203.323 229.529C204.206 229.699 205.061 229.119 205.232 228.238M256.917 230.039C256.48 229.483 256.444 228.683 256.88 228.081C257.4 227.368 258.39 227.2 259.114 227.69C259.138 227.714 259.668 228.197 259.787 228.482C259.911 228.781 259.979 229.138 259.848 229.598C259.598 230.46 258.692 230.959 257.828 230.712C257.437 230.599 257.122 230.353 256.917 230.039ZM224.799 231.123C224.736 231.177 224.679 231.231 224.627 231.286C224.575 231.343 224.531 231.404 224.492 231.467C224.575 231.34 224.679 231.225 224.799 231.123M224.44 231.559C224.381 231.674 224.34 231.801 224.323 231.942C224.307 232.08 224.31 232.232 224.334 232.396C224.294 232.102 224.334 231.816 224.44 231.559M214.98 230.024C214.912 230.024 214.843 230.026 214.775 230.026C213.875 230.034 213.149 230.767 213.156 231.665C213.162 232.562 213.899 233.286 214.799 233.281C214.871 233.279 214.943 233.279 215.013 233.279C215.913 233.27 216.637 232.533 216.628 231.637C216.619 230.737 215.88 230.017 214.98 230.024ZM243.75 231.048C244.046 231.722 243.85 232.537 243.235 232.998C242.517 233.538 241.493 233.394 240.952 232.677C240.68 232.317 240.767 232.568 240.619 231.947C240.41 231.075 240.95 230.194 241.828 229.987C242.652 229.792 243.483 230.259 243.75 231.048M224.451 231.53C224.657 231.051 225.088 230.68 225.638 230.571C226.523 230.401 227.38 230.977 227.552 231.859C227.712 232.69 227.414 233.233 226.825 233.674C226.104 234.214 225.082 234.068 224.542 233.349C224.131 232.803 224.116 232.082 224.451 231.53" fill="black"/>
<path fill-rule="evenodd" clip-rule="evenodd" d="M99.2814 151.721L98.9413 151.522C98.5726 151.378 98.2446 151.034 97.855 150.923C96.8591 150.637 94.2743 149.156 93.5242 148.435C91.6116 146.596 91.6382 146.608 90.1437 144.341C89.8172 143.847 88.9564 142.273 88.8655 141.594C88.7631 140.828 88.459 139.756 88.3179 138.998C88.2107 138.41 87.8452 137.64 87.8038 137.039C87.7826 136.707 87.1932 135.585 87.0752 135.3C87.8353 136.063 89.3667 137.414 90.1146 138.18C91.1473 139.237 92.1271 140.715 93.1611 141.773C94.072 142.705 94.9557 143.955 95.6513 145.105C96.6639 146.776 97.7829 148.455 98.4639 150.366C98.6049 150.766 99.1094 151.344 99.2814 151.721ZM87.4448 135.322C87.2323 135.039 86.998 134.777 86.7738 134.529L87.6094 134.826C88.4214 134.975 89.0082 135.576 89.7727 135.788C91.0912 136.155 92.5245 136.507 93.7512 137.112C96.2523 138.345 98.5208 141.339 99.2984 144.321C99.7212 145.938 99.8747 147.657 100.12 149.332C100.227 150.069 100.369 150.842 100.56 151.549C100.617 151.762 100.872 152.071 100.867 152.29C100.863 152.349 100.597 152.276 100.594 152.275C100.221 152.149 99.7489 151.988 99.609 151.608C99.249 150.634 98.6401 149.676 98.4382 149.333C97.4617 147.657 96.7792 145.754 95.7243 144.129C95.021 143.045 94.1626 142.348 93.3384 141.419C92.041 139.954 90.8685 138.297 89.4546 136.967C88.8183 136.369 88.1147 135.872 87.4448 135.322ZM95.4494 132.105L95.1106 131.906C94.7418 131.761 94.4139 131.417 94.023 131.306C93.028 131.022 90.4411 129.539 89.6917 128.82C87.7797 126.979 87.8075 126.992 86.3113 124.725C85.9852 124.23 85.1244 122.656 85.0348 121.978C84.9312 121.211 84.6282 120.14 84.4872 119.382C84.3783 118.795 84.014 118.025 83.9718 117.423C83.9506 117.091 83.3607 115.969 83.2444 115.684C84.0034 116.447 85.5343 117.798 86.2821 118.564C87.3153 119.62 88.2964 121.099 89.3286 122.157C90.2408 123.09 91.1249 124.339 91.8206 125.489C92.8315 127.161 93.951 128.838 94.632 130.749C94.7742 131.15 95.2774 131.727 95.4494 132.105ZM83.6136 115.707C83.4003 115.423 83.1673 115.161 82.9413 114.914L83.7774 115.209C84.5889 115.359 85.177 115.961 85.9402 116.173C87.2605 116.539 88.6925 116.891 89.92 117.497C92.4203 118.728 94.6884 121.723 95.4672 124.706C95.8876 126.322 96.0439 128.041 96.289 129.716C96.3953 130.453 96.5363 131.227 96.7275 131.934C96.7858 132.146 97.0397 132.455 97.0341 132.675C97.0314 132.732 96.765 132.661 96.7624 132.66C96.3902 132.533 95.9169 132.371 95.7765 131.992C95.4166 131.018 94.8081 130.059 94.6075 129.717C93.6293 128.042 92.9485 126.138 91.8931 124.514C91.1898 123.43 90.3306 122.731 89.5065 121.802C88.2073 120.338 87.0365 118.68 85.6226 117.35C84.9859 116.753 84.2823 116.257 83.6136 115.707M77.8081 138.954L77.4681 138.755C77.0993 138.611 76.7714 138.267 76.3809 138.154C75.3859 137.869 72.7998 136.389 72.0497 135.667C70.1396 133.829 70.165 133.841 68.6692 131.573C68.3431 131.078 67.4836 129.505 67.3923 128.827C67.2911 128.061 66.9857 126.989 66.8464 126.23C66.7375 125.643 66.3719 124.873 66.331 124.271C66.3093 123.94 65.7199 122.818 65.6036 122.532C66.3621 123.296 67.8935 124.647 68.6413 125.413C69.674 126.47 70.6551 127.948 71.6878 129.006C72.5987 129.938 73.4837 131.188 74.1793 132.339C75.1906 134.009 76.3101 135.686 76.9894 137.598C77.1334 137.998 77.6361 138.577 77.8081 138.954M65.9716 122.555C65.7595 122.271 65.5247 122.01 65.3005 121.762L66.1366 122.058C66.9481 122.208 67.535 122.809 68.2994 123.021C69.6179 123.388 71.0513 123.74 72.2792 124.345C74.7807 125.577 77.0475 128.572 77.8252 131.554C78.248 133.171 78.4014 134.89 78.6465 136.565C78.7541 137.302 78.8955 138.075 79.088 138.782C79.1433 138.995 79.3989 139.304 79.3932 139.523C79.3919 139.581 79.1241 139.509 79.1241 139.509C78.7493 139.381 78.2769 139.221 78.1357 138.841C77.7757 137.867 77.1668 136.909 76.9654 136.565C75.9885 134.89 75.3072 132.987 74.251 131.362C73.5477 130.278 72.6898 129.58 71.8656 128.651C70.5665 127.187 69.3953 125.53 67.9813 124.2C67.3451 123.602 66.6415 123.105 65.9716 122.555M75.6265 115.235L75.2865 115.036C74.9177 114.892 74.5885 114.547 74.1988 114.436C73.203 114.15 70.6169 112.669 69.868 111.948C67.9568 110.11 67.9834 110.122 66.4876 107.854C66.1615 107.359 65.3015 105.787 65.2107 105.108C65.1083 104.342 64.8041 103.27 64.663 102.512C64.5546 101.923 64.1903 101.154 64.1493 100.552C64.1264 100.221 63.537 99.0983 63.4203 98.8137C64.1804 99.5771 65.7106 100.927 66.4597 101.694C67.4912 102.75 68.4722 104.229 69.5049 105.286C70.4171 106.219 71.3008 107.469 71.9965 108.619C73.009 110.29 74.1273 111.967 74.8078 113.879C74.9505 114.278 75.4545 114.858 75.6265 115.235M63.7895 98.8375C63.5761 98.5528 63.3431 98.2907 63.1176 98.0427L63.9545 98.3399C64.7652 98.4882 65.3533 99.0901 66.1165 99.3018C67.4363 99.6691 68.8696 100.021 70.0958 100.627C72.5974 101.859 74.8642 104.853 75.6423 107.835C76.0651 109.451 76.2198 111.171 76.4636 112.845C76.5712 113.583 76.7126 114.355 76.9051 115.063C76.9617 115.276 77.2173 115.584 77.2104 115.804C77.209 115.861 76.9413 115.79 76.9413 115.79C76.566 115.663 76.094 115.501 75.9541 115.122C75.5941 114.148 74.9839 113.189 74.7834 112.847C73.8068 111.171 73.1243 109.268 72.0694 107.643C71.3661 106.559 70.5081 105.861 69.6828 104.931C68.3836 103.467 67.2124 101.81 65.7997 100.481C65.1622 99.8822 64.4586 99.3855 63.7895 98.8375" fill="#EBC117"/>
<path fill-rule="evenodd" clip-rule="evenodd" d="M231.281 355.721L230.941 355.522C230.572 355.378 230.245 355.034 229.855 354.923C228.859 354.637 226.274 353.156 225.524 352.435C223.612 350.596 223.638 350.608 222.144 348.341C221.817 347.847 220.956 346.273 220.865 345.594C220.763 344.828 220.459 343.756 220.318 342.998C220.211 342.41 219.845 341.64 219.804 341.039C219.783 340.707 219.193 339.585 219.075 339.3C219.835 340.063 221.367 341.414 222.115 342.18C223.147 343.237 224.127 344.715 225.161 345.773C226.072 346.705 226.956 347.955 227.651 349.105C228.664 350.776 229.783 352.455 230.464 354.366C230.605 354.766 231.109 355.344 231.281 355.721ZM219.445 339.322C219.232 339.039 218.998 338.777 218.774 338.529L219.609 338.826C220.421 338.975 221.008 339.576 221.773 339.788C223.091 340.155 224.524 340.507 225.751 341.112C228.252 342.345 230.521 345.339 231.298 348.321C231.721 349.938 231.875 351.657 232.12 353.332C232.227 354.069 232.369 354.842 232.56 355.549C232.616 355.762 232.872 356.071 232.866 356.29C232.863 356.349 232.597 356.276 232.594 356.275C232.221 356.149 231.749 355.988 231.609 355.608C231.249 354.634 230.64 353.676 230.438 353.333C229.462 351.657 228.779 349.754 227.724 348.129C227.021 347.045 226.163 346.348 225.338 345.419C224.041 343.954 222.868 342.297 221.455 340.967C220.818 340.369 220.115 339.872 219.445 339.322ZM227.449 336.105L227.111 335.906C226.742 335.761 226.414 335.417 226.023 335.306C225.028 335.022 222.441 333.539 221.692 332.82C219.78 330.979 219.807 330.992 218.311 328.725C217.985 328.23 217.124 326.656 217.035 325.978C216.931 325.211 216.628 324.14 216.487 323.382C216.378 322.795 216.014 322.025 215.972 321.423C215.951 321.091 215.361 319.969 215.244 319.684C216.003 320.447 217.534 321.798 218.282 322.564C219.315 323.62 220.296 325.099 221.329 326.157C222.241 327.09 223.125 328.339 223.821 329.489C224.831 331.161 225.951 332.838 226.632 334.749C226.774 335.15 227.277 335.727 227.449 336.105ZM215.614 319.707C215.4 319.423 215.167 319.161 214.941 318.914L215.777 319.209C216.589 319.359 217.177 319.961 217.94 320.173C219.26 320.539 220.692 320.891 221.92 321.497C224.42 322.728 226.688 325.723 227.467 328.706C227.888 330.322 228.044 332.041 228.289 333.716C228.395 334.453 228.536 335.227 228.727 335.934C228.786 336.146 229.04 336.455 229.034 336.675C229.031 336.732 228.765 336.661 228.762 336.66C228.39 336.533 227.917 336.371 227.776 335.992C227.416 335.018 226.808 334.059 226.607 333.717C225.629 332.042 224.948 330.138 223.893 328.514C223.19 327.43 222.331 326.731 221.506 325.802C220.207 324.338 219.036 322.68 217.623 321.35C216.986 320.753 216.282 320.257 215.614 319.707M209.808 342.954L209.468 342.755C209.099 342.611 208.771 342.267 208.381 342.154C207.386 341.869 204.8 340.389 204.05 339.667C202.14 337.829 202.165 337.841 200.669 335.573C200.343 335.078 199.484 333.505 199.392 332.827C199.291 332.061 198.986 330.989 198.846 330.23C198.737 329.643 198.372 328.873 198.331 328.271C198.309 327.94 197.72 326.818 197.604 326.532C198.362 327.296 199.893 328.647 200.641 329.413C201.674 330.47 202.655 331.948 203.688 333.006C204.599 333.938 205.484 335.188 206.179 336.339C207.191 338.009 208.31 339.686 208.989 341.598C209.133 341.998 209.636 342.577 209.808 342.954M197.972 326.555C197.759 326.271 197.525 326.01 197.3 325.762L198.137 326.058C198.948 326.208 199.535 326.809 200.299 327.021C201.618 327.388 203.051 327.74 204.279 328.345C206.781 329.577 209.047 332.572 209.825 335.554C210.248 337.171 210.401 338.89 210.646 340.565C210.754 341.302 210.895 342.075 211.088 342.782C211.143 342.995 211.399 343.304 211.393 343.523C211.392 343.581 211.124 343.509 211.124 343.509C210.749 343.381 210.277 343.221 210.136 342.841C209.776 341.867 209.167 340.909 208.965 340.565C207.988 338.89 207.307 336.987 206.251 335.362C205.548 334.278 204.69 333.58 203.866 332.651C202.566 331.187 201.395 329.53 199.981 328.2C199.345 327.602 198.641 327.105 197.972 326.555M207.626 319.235L207.286 319.036C206.918 318.892 206.588 318.547 206.199 318.436C205.203 318.15 202.617 316.669 201.868 315.948C199.957 314.11 199.983 314.122 198.488 311.854C198.161 311.359 197.301 309.787 197.211 309.108C197.108 308.342 196.804 307.27 196.663 306.512C196.555 305.923 196.19 305.154 196.149 304.552C196.126 304.221 195.537 303.098 195.42 302.814C196.18 303.577 197.711 304.927 198.46 305.694C199.491 306.75 200.472 308.229 201.505 309.286C202.417 310.219 203.301 311.469 203.996 312.619C205.009 314.29 206.127 315.967 206.808 317.879C206.95 318.278 207.454 318.858 207.626 319.235M195.789 302.838C195.576 302.553 195.343 302.291 195.118 302.043L195.954 302.34C196.765 302.488 197.353 303.09 198.116 303.302C199.436 303.669 200.87 304.021 202.096 304.627C204.597 305.859 206.864 308.853 207.642 311.835C208.065 313.451 208.22 315.171 208.464 316.845C208.571 317.583 208.713 318.355 208.905 319.063C208.962 319.276 209.217 319.584 209.21 319.804C209.209 319.861 208.941 319.79 208.941 319.79C208.566 319.663 208.094 319.501 207.954 319.122C207.594 318.148 206.984 317.189 206.783 316.847C205.807 315.171 205.124 313.268 204.069 311.643C203.366 310.559 202.508 309.861 201.683 308.931C200.384 307.467 199.212 305.81 197.8 304.481C197.162 303.882 196.459 303.385 195.789 302.838" fill="#EBC117"/>
</svg>
