<svg width="172" height="192" viewBox="0 0 172 192" fill="none" xmlns="http://www.w3.org/2000/svg">
<mask id="mask0_0_27" style="mask-type:luminance" maskUnits="userSpaceOnUse" x="0" y="0" width="172" height="192">
<path d="M0.998466 51.4741L90.154 7.22381e-05L171.109 140.218L81.9531 191.692L0.998466 51.4741Z" fill="white"/>
</mask>
<g mask="url(#mask0_0_27)">
<g opacity="0.610001">
<path fill-rule="evenodd" clip-rule="evenodd" d="M75.0771 74.7321C74.3357 75 73.5019 73.5692 73.161 73.064C65.2614 61.3789 61.887 35.9423 64.3825 22.4033C64.7447 20.436 65.0215 14.478 67.122 13.2976C67.4386 13.1179 71.7228 22.3516 74.5187 28.3784C79.9011 39.9863 84.8805 61.7174 75.9276 72.88L75.0771 74.7321ZM81.1689 190.326C80.4779 189.503 77.898 173.829 76.1345 169.966C74.1085 165.532 70.4576 162.051 68.447 157.574C62.7155 144.817 54.139 128.453 52.1628 114.628C52.1521 114.548 54.3185 116.396 55.6376 117.771C57.6078 119.824 59.5293 122.149 61.0745 124.554C65.7889 131.901 71.3502 137.73 75.2696 145.823C76.3762 148.108 77.2607 150.125 77.5171 152.665C77.6643 154.101 79.1062 158.02 79.3396 156.595C80.5752 149.055 77.6391 138.674 75.3564 131.635C74.0104 127.493 74.4382 122.946 73.204 118.725C70.4839 109.414 58.083 89.8229 51.6757 82.1784C47.1673 76.8016 35.1224 53.638 37.6675 47.2542C37.6723 47.2438 39.3868 49.2854 39.5683 49.5038C40.9115 51.1209 42.0711 52.8655 43.4333 54.4701C47.6591 59.4481 52.9768 63.6294 56.6688 69.0773C65.2932 81.8019 72.4102 93.3983 74.6151 108.636C75.6285 115.637 75.9514 125.913 78.5478 132.208C78.7491 132.695 79.0337 133.724 79.6721 133.662C80.9767 133.532 86.09 112.93 87.5734 108.155C92.255 93.0692 91.6978 76.4614 95.3437 61.0589C97.1085 53.5983 102.004 47.4832 105.907 41.1732C107.203 39.0746 107.909 35.9021 109.831 34.2592C110.225 33.9226 111.671 40.0716 111.787 40.6064C113.287 47.5784 113.301 54.9913 112.245 62.0474C108.883 84.499 97.7466 104.088 90.4406 125.19C88.5697 130.595 80.8605 141.379 83.9826 147.405C85.6351 150.592 91.9651 140.996 92.587 139.951C99.4466 128.419 106.724 117.572 115.65 107.578C117.72 105.262 125.635 97.5595 126.492 98.3085C127.623 99.2956 118.685 120.306 116.408 124.723C112.058 133.159 107.55 144.129 100.134 150.534C95.6744 154.386 87.0283 157.931 84.6792 163.489C80.7696 172.747 85.4906 181.257 84.1698 190.412L81.1689 190.326Z" fill="#EBC117"/>
</g>
</g>
</svg>
