<svg width="57" height="24" viewBox="0 0 57 24" fill="none" xmlns="http://www.w3.org/2000/svg">
<path fill-rule="evenodd" clip-rule="evenodd" d="M6.58645 0H17.2808C20.9129 0 23.8677 2.95482 23.8676 6.58659V17.281C23.8676 20.9128 20.9129 23.8676 17.2808 23.8676H6.58645C2.95468 23.8676 0 20.9129 0 17.281V6.58659C0 2.95482 2.95468 0 6.58645 0ZM17.281 21.7499C19.7452 21.7499 21.7501 19.7452 21.7501 17.281H21.7499V6.58659C21.7499 4.12249 19.7451 2.11765 17.2808 2.11765H6.58645C4.12235 2.11765 2.11765 4.12249 2.11765 6.58659V17.281C2.11765 19.7452 4.12235 21.7501 6.58645 21.7499H17.281Z" fill="#404040"/>
<path fill-rule="evenodd" clip-rule="evenodd" d="M5.78372 11.9341C5.78372 8.54287 8.54259 5.784 11.9338 5.784C15.325 5.784 18.0839 8.54287 18.0839 11.9341C18.0839 15.3251 15.325 18.0839 11.9338 18.0839C8.54259 18.0839 5.78372 15.3251 5.78372 11.9341ZM7.90137 11.9339C7.90137 14.1573 9.7104 15.9661 11.9338 15.9661C14.1572 15.9661 15.9662 14.1573 15.9662 11.9339C15.9662 9.7104 14.1573 7.9015 11.9338 7.9015C9.71026 7.9015 7.90137 9.7104 7.90137 11.9339Z" fill="#404040"/>
<path d="M18.3418 3.9884C17.9338 3.9884 17.533 4.15358 17.2448 4.44299C16.9553 4.73099 16.7888 5.13193 16.7888 5.54134C16.7888 5.94949 16.9554 6.35029 17.2448 6.6397C17.5328 6.9277 17.9338 7.09429 18.3418 7.09429C18.7512 7.09429 19.1507 6.9277 19.4401 6.6397C19.7296 6.35029 19.8947 5.94934 19.8947 5.54134C19.8947 5.13193 19.7296 4.73099 19.4401 4.44299C19.1521 4.15358 18.7512 3.9884 18.3418 3.9884Z" fill="#404040"/>
<path fill-rule="evenodd" clip-rule="evenodd" d="M50.2808 0H39.5864C35.9547 0 33 2.95482 33 6.58659V17.281C33 20.9129 35.9547 23.8676 39.5864 23.8676H50.2808C53.9129 23.8676 56.8676 20.9128 56.8676 17.281V6.58659C56.8677 2.95482 53.9129 0 50.2808 0ZM54.7501 17.281C54.7501 19.7452 52.7452 21.7499 50.281 21.7499H47.7997V14.3574H50.434L50.8285 11.2988H47.7997V9.34599C47.7997 8.46043 48.0456 7.85696 49.3155 7.85696L50.9351 7.85625V5.12055C50.655 5.08328 49.6936 5 48.575 5C46.2398 5 44.6411 6.42541 44.6411 9.04307V11.2988H42V14.3574H44.6411V21.7499H39.5864C37.1224 21.7501 35.1176 19.7452 35.1176 17.281V6.58659C35.1176 4.12249 37.1224 2.11765 39.5864 2.11765H50.2808C52.7451 2.11765 54.7499 4.12249 54.7499 6.58659V17.281H54.7501ZM44.6411 21.7499V22.7206H47.7997V21.7499H44.6411Z" fill="#404040"/>
</svg>
