<svg width="147" height="174" viewBox="0 0 147 174" fill="none" xmlns="http://www.w3.org/2000/svg">
<path fill-rule="evenodd" clip-rule="evenodd" d="M0.00361369 61.7305C0.636947 112.356 70.4636 171.461 89.3796 152.28C93.1103 148.497 91.7916 140.5 95.4196 135.602C117.597 105.684 144.804 79.0038 93.8316 54.2505C82.3943 48.6958 64.8996 58.9158 51.6409 54.4065C38.8663 50.0638 30.9929 31.6718 16.8916 31.5958C3.99428 31.5251 -0.140386 50.2171 0.00361369 61.7305Z" fill="#F27A62"/>
<path fill-rule="evenodd" clip-rule="evenodd" d="M105.645 88.8794L105.637 88.8594C105.64 88.8661 105.642 88.8727 105.645 88.8794ZM141.358 93.3247C141.316 93.2874 141.278 93.2421 141.249 93.1914C141.222 93.1407 141.202 93.0834 141.194 93.0207C141.214 93.1807 141.286 93.2714 141.358 93.3247ZM96.5558 104.898C96.5705 105.47 96.4185 106.486 96.3878 107.39C96.3638 108.091 96.4238 108.733 96.6211 109.13C96.7371 109.361 97.0185 109.454 97.2491 109.339C97.4811 109.223 97.5745 108.942 97.4585 108.711C97.3118 108.418 97.3051 107.939 97.3238 107.421C97.3545 106.497 97.5065 105.458 97.4905 104.873C97.4838 104.614 97.2691 104.41 97.0091 104.418C96.7518 104.425 96.5478 104.639 96.5558 104.898ZM145.79 104.859C145.437 106.573 145.829 108.511 145.829 110.261C145.829 110.519 146.038 110.729 146.297 110.729C146.556 110.729 146.765 110.519 146.765 110.261C146.765 108.573 146.366 106.702 146.708 105.049C146.76 104.797 146.596 104.547 146.342 104.495C146.09 104.443 145.842 104.606 145.79 104.859ZM99.7571 98.7474C99.7371 98.8274 99.5665 99.5501 99.4798 100.317C99.0225 104.303 98.7465 113.561 98.9171 114.526C98.9611 114.781 98.7918 115.023 98.5371 115.069C98.2838 115.114 98.0398 114.943 97.9958 114.689C97.8225 113.705 98.0851 104.273 98.5505 100.21C98.6345 99.4687 98.7291 98.8994 98.8251 98.5781C98.8971 98.3354 98.9971 98.1847 99.0705 98.1141C99.2598 97.9367 99.5558 97.9461 99.7318 98.1341C99.8958 98.3061 99.9011 98.5687 99.7571 98.7474ZM145.026 116.574C144.785 115.563 145.006 108.911 145.346 104.571C145.488 102.767 145.634 101.373 145.801 100.998C145.905 100.762 145.798 100.486 145.562 100.381C145.328 100.277 145.05 100.382 144.946 100.619C144.765 101.025 144.566 102.537 144.413 104.498C144.065 108.942 143.87 115.755 144.116 116.79C144.174 117.041 144.428 117.197 144.678 117.137C144.93 117.077 145.085 116.825 145.026 116.574ZM102.249 121.597C100.944 112.051 102.737 102.362 102.738 92.8594C102.738 92.6021 102.529 92.3914 102.27 92.3914C102.012 92.3914 101.802 92.6021 101.802 92.8594C101.801 102.405 100.009 112.137 101.322 121.723C101.357 121.979 101.593 122.159 101.849 122.125C102.105 122.089 102.284 121.853 102.249 121.597ZM142.43 121.701C142.386 121.574 142.382 121.187 142.382 120.606C142.38 117.959 142.741 111.731 143.228 106.346C143.509 103.213 143.833 100.366 144.152 98.6821C144.274 98.0301 144.384 97.5674 144.501 97.3634C144.63 97.1394 144.553 96.8527 144.33 96.7247C144.106 96.5954 143.82 96.6727 143.69 96.8954C143.546 97.1474 143.384 97.7074 143.23 98.5074C142.909 100.213 142.581 103.091 142.294 106.261C141.806 111.679 141.444 117.945 141.446 120.606C141.448 121.351 141.49 121.845 141.546 122.007C141.63 122.25 141.896 122.381 142.141 122.295C142.386 122.211 142.514 121.945 142.43 121.701ZM106.508 88.8461L106.509 88.8821C106.496 90.1901 106.185 91.4941 106.065 92.7967C105.816 95.5101 105.673 98.3074 105.673 101.037C105.673 104.758 105.146 108.455 105.15 112.147C105.154 116.521 105.7 121.007 105.333 125.371C105.312 125.629 105.085 125.821 104.828 125.798C104.569 125.777 104.378 125.551 104.4 125.294C104.766 120.954 104.218 116.495 104.214 112.149C104.21 108.457 104.737 104.759 104.737 101.037C104.737 98.2781 104.881 95.4527 105.133 92.7114C105.25 91.4341 105.56 90.1554 105.573 88.8714V88.8861C105.573 88.8861 105.576 88.5981 105.594 88.5327C105.633 88.3994 105.71 88.3234 105.768 88.2821C105.918 88.1674 106.088 88.1407 106.278 88.2447C106.325 88.2701 106.43 88.3274 106.504 88.5061C106.549 88.6194 106.549 88.7394 106.508 88.8461ZM142.098 93.1301C142.064 93.4994 141.864 95.6554 141.821 96.3487C141.664 98.8447 141.617 101.338 141.272 103.823C140.473 109.546 140.09 115.35 139.496 121.103C139.42 121.838 139.173 122.722 138.97 123.602C138.788 124.399 138.638 125.19 138.744 125.841C138.785 126.095 138.613 126.335 138.358 126.378C138.104 126.419 137.862 126.246 137.821 125.991C137.721 125.381 137.797 124.662 137.945 123.921C138.145 122.913 138.477 121.857 138.565 121.007C139.161 115.242 139.545 109.429 140.344 103.694C140.686 101.233 140.73 98.7621 140.888 96.2887C140.937 95.4981 141.129 93.1594 141.188 92.8807C141.284 92.4234 141.728 92.4834 141.792 92.5034C141.85 92.5207 142.086 92.5887 142.124 92.9114C142.133 92.9874 142.124 93.0621 142.098 93.1301ZM136.849 127.266C136.794 127.185 136.77 127.034 136.741 126.841C136.68 126.43 136.66 125.862 136.664 125.21C136.678 122.577 137.11 118.61 137.197 117.638C137.702 111.962 138.394 106.329 138.996 100.666C139.356 97.2807 140.156 93.6967 139.662 90.2754C139.625 90.0194 139.388 89.8421 139.132 89.8794C138.877 89.9154 138.698 90.1541 138.734 90.4087C139.22 93.7541 138.417 97.2567 138.065 100.567C137.462 106.235 136.77 111.874 136.264 117.555C136.176 118.538 135.742 122.545 135.728 125.205C135.722 126.041 135.761 126.749 135.856 127.207C135.91 127.47 135.992 127.669 136.08 127.795C136.226 128.009 136.517 128.062 136.729 127.917C136.944 127.77 136.997 127.478 136.849 127.266ZM108.504 128.171C108.529 121.509 107.734 114.765 108.292 108.099C108.889 100.971 109.846 93.7261 109.866 86.5727C109.866 86.3141 109.658 86.1034 109.398 86.1021C109.141 86.1021 108.93 86.3114 108.93 86.5701C108.91 93.6981 107.953 100.918 107.36 108.021C106.8 114.711 107.593 121.481 107.566 128.167C107.565 128.426 107.776 128.637 108.033 128.637C108.29 128.638 108.502 128.43 108.504 128.171ZM134.526 129.006C134.046 124.945 134.585 120.645 134.99 116.595C135.961 106.883 137.016 97.2674 137.016 87.5141C137.016 87.2554 136.806 87.0461 136.549 87.0461C136.289 87.0461 136.08 87.2554 136.08 87.5141C136.08 97.2367 135.026 106.822 134.06 116.501C133.648 120.617 133.109 124.989 133.597 129.115C133.626 129.373 133.86 129.555 134.117 129.525C134.373 129.495 134.557 129.262 134.526 129.006ZM112.09 84.8394C111.194 99.7727 109.874 114.509 109.874 129.549C109.874 129.807 110.084 130.017 110.341 130.017C110.6 130.017 110.81 129.807 110.81 129.549C110.81 114.527 112.129 99.8101 113.024 84.8954C113.04 84.6367 112.842 84.4154 112.585 84.4007C112.328 84.3847 112.106 84.5807 112.09 84.8394ZM131.768 130.586C131.954 120.293 132.784 109.871 133.556 99.6034C133.889 95.1607 134.349 90.5034 133.688 86.0794C133.649 85.8234 133.41 85.6487 133.156 85.6861C132.9 85.7247 132.725 85.9621 132.762 86.2181C133.413 90.5741 132.95 95.1594 132.622 99.5341C131.85 109.818 131.02 120.258 130.832 130.569C130.828 130.827 131.033 131.041 131.29 131.046C131.549 131.05 131.762 130.845 131.768 130.586ZM129.314 131.135C128.634 126.345 129.285 121.667 129.55 116.851C129.928 109.953 129.593 102.994 130.094 96.1061C130.382 92.1554 130.725 88.4767 130.725 84.5421C130.725 84.2821 130.514 84.0741 130.257 84.0741C129.998 84.0741 129.788 84.2834 129.788 84.5421C129.788 88.4527 129.448 92.1101 129.161 96.0381C128.66 102.933 128.994 109.895 128.616 116.801C128.348 121.678 127.7 126.415 128.388 131.267C128.424 131.522 128.661 131.701 128.916 131.665C129.172 131.629 129.349 131.391 129.314 131.135ZM115.474 131.363C115.865 129.075 115.12 126.241 114.92 123.951C114.578 120.043 114.629 115.782 114.897 111.865C115.409 104.363 114.738 96.5941 115.732 89.1487C115.974 87.3381 116.546 85.4714 116.572 83.6421C116.576 83.3834 116.369 83.1714 116.112 83.1674C115.853 83.1634 115.64 83.3714 115.636 83.6287C115.612 85.4221 115.042 87.2501 114.805 89.0247C113.808 96.4901 114.477 104.281 113.962 111.801C113.693 115.766 113.642 120.078 113.988 124.033C114.181 126.249 114.93 128.991 114.553 131.206C114.508 131.461 114.68 131.702 114.934 131.746C115.189 131.79 115.432 131.618 115.474 131.363ZM126.257 131.25C126.193 131.153 126.169 130.933 126.134 130.629C126.066 130.031 126.041 129.173 126.04 128.171C126.038 124.211 126.461 118.059 126.586 116.894C127.21 111.131 126.137 105.621 126.521 99.8967C126.877 94.5727 127.569 89.2741 127.569 83.9327C127.569 83.6741 127.361 83.4634 127.102 83.4634C126.844 83.4634 126.634 83.6741 126.634 83.9327C126.634 89.2527 125.942 94.5301 125.588 99.8341C125.205 105.545 126.278 111.045 125.657 116.794C125.51 118.139 124.974 126.061 125.133 129.741C125.162 130.418 125.217 130.959 125.296 131.302C125.345 131.51 125.409 131.662 125.473 131.761C125.614 131.977 125.904 132.039 126.12 131.898C126.337 131.758 126.397 131.467 126.257 131.25ZM117.866 83.2914C119.669 88.8274 118.272 97.0074 117.453 102.734C116.865 106.862 117.269 111.086 116.881 115.225C116.362 120.746 115.954 126.515 116.748 132.005C116.785 132.261 117.022 132.438 117.278 132.402C117.534 132.365 117.712 132.127 117.673 131.871C116.893 126.454 117.301 120.761 117.812 115.313C118.198 111.189 117.793 106.979 118.381 102.866C119.216 97.0154 120.598 88.6581 118.756 83.0021C118.676 82.7567 118.412 82.6221 118.166 82.7021C117.921 82.7821 117.786 83.0461 117.866 83.2914ZM123.129 83.1927C123.758 94.7687 122.86 106.302 122.933 117.831C122.949 120.361 122.552 123.543 122.564 126.553C122.573 128.621 122.778 130.607 123.414 132.266C123.506 132.507 123.778 132.627 124.018 132.535C124.261 132.442 124.381 132.171 124.288 131.93C123.534 129.97 123.442 127.522 123.524 125.05C123.608 122.507 123.882 119.938 123.869 117.825C123.794 106.281 124.694 94.7341 124.064 83.1421C124.05 82.8834 123.83 82.6861 123.572 82.6994C123.314 82.7141 123.117 82.9354 123.129 83.1927ZM121.642 83.6541C121.636 83.7207 121.576 84.3061 121.572 84.9154C121.552 88.1581 121.997 95.6487 121.86 97.0154C120.684 108.694 121.328 120.793 121.544 132.495C121.549 132.754 121.342 132.967 121.084 132.971C120.826 132.977 120.613 132.771 120.608 132.513C120.392 120.773 119.749 108.637 120.929 96.9221C121.065 95.5647 120.616 88.1301 120.637 84.9087C120.641 84.3127 120.662 83.8541 120.702 83.5887C120.733 83.3821 120.792 83.2474 120.838 83.1794C120.984 82.9661 121.276 82.9101 121.489 83.0567C121.685 83.1901 121.746 83.4474 121.642 83.6541Z" fill="#060606"/>
<path fill-rule="evenodd" clip-rule="evenodd" d="M69.2758 127.154C69.3251 127.226 69.3918 127.294 69.4838 127.347C69.5771 127.4 69.6918 127.435 69.8438 127.445C69.6131 127.431 69.4118 127.321 69.2758 127.154ZM56.9678 123.113C56.9651 123.134 56.8331 124.104 56.8038 124.95C56.7238 127.341 56.8211 130.948 56.9718 131.496C57.0878 131.92 56.8398 132.358 56.4158 132.474C55.9918 132.59 55.5544 132.341 55.4384 131.918C55.2758 131.329 55.1291 127.461 55.2144 124.897C55.2558 123.669 55.3878 122.714 55.5318 122.425C55.7291 122.032 56.2078 121.873 56.5998 122.069C56.9851 122.262 57.1451 122.725 56.9678 123.113ZM61.3331 123.766C61.3064 123.87 61.2518 124.098 61.2064 124.368C61.0891 125.065 60.9478 125.75 60.7224 126.426C60.1851 128.042 59.4331 130.139 59.4531 131.851C59.4584 132.29 59.1051 132.652 58.6664 132.655C58.2278 132.66 57.8664 132.307 57.8611 131.869C57.8411 129.995 58.6238 127.692 59.2131 125.922C59.4118 125.326 59.5331 124.719 59.6371 124.103C59.7518 123.417 59.8611 123.121 59.9144 123.015C60.0318 122.786 60.1744 122.697 60.2504 122.653C60.5784 122.462 60.8584 122.521 61.0878 122.667C61.4598 122.903 61.5691 123.396 61.3331 123.765V123.766ZM52.3891 123.621C52.3918 123.669 52.4078 123.964 52.4438 124.154C52.5624 124.765 52.7824 125.451 52.8278 125.769C53.1051 127.715 53.6038 130.456 53.4691 132.391C53.4371 132.829 53.0571 133.16 52.6184 133.129C52.1811 133.098 51.8504 132.718 51.8811 132.281C52.0091 130.441 51.5171 127.842 51.2518 125.993C51.1998 125.63 50.9144 124.777 50.8264 124.119C50.7638 123.658 50.8064 123.26 50.9224 123.005C51.1038 122.605 51.5771 122.428 51.9758 122.609C52.3624 122.785 52.5411 123.23 52.3891 123.621ZM62.5144 132.902C62.5064 132.528 62.7584 131.91 63.0864 131.173C63.9998 129.129 65.6224 126.381 66.1918 125.119C66.3731 124.718 66.1944 124.247 65.7958 124.066C65.3958 123.885 64.9224 124.063 64.7424 124.463C64.1718 125.727 62.5464 128.478 61.6344 130.525C61.1811 131.542 60.9131 132.418 60.9238 132.936C60.9331 133.375 61.2971 133.723 61.7358 133.714C62.1744 133.706 62.5238 133.342 62.5144 132.902ZM50.7651 133.101C50.0558 130.104 48.7638 127.233 48.0438 124.225C47.9411 123.797 47.5118 123.534 47.0838 123.637C46.6584 123.738 46.3944 124.169 46.4971 124.596C47.2158 127.601 48.5078 130.472 49.2171 133.468C49.3171 133.896 49.7478 134.16 50.1744 134.058C50.6011 133.958 50.8664 133.529 50.7651 133.101ZM69.1771 126.3C69.3131 126.021 69.6091 125.837 69.9384 125.856C70.2771 125.877 70.4464 126.044 70.5451 126.172C70.6798 126.345 70.7478 126.556 70.7024 126.812C70.6851 126.91 70.6411 127.045 70.5344 127.183C70.4891 127.245 70.3184 127.403 70.2878 127.433C70.1771 127.565 70.0278 127.682 69.9358 127.821C69.5798 128.36 69.0438 128.774 68.7304 129.346C68.1918 130.326 67.4011 130.974 66.7691 131.849C66.1571 132.694 65.7064 133.822 64.9558 134.549C64.6384 134.854 64.1358 134.846 63.8304 134.529C63.5264 134.213 63.5331 133.71 63.8504 133.403C64.5371 132.74 64.9198 131.69 65.4784 130.917C66.0718 130.097 66.8304 129.501 67.3344 128.58C67.6704 127.969 68.2291 127.517 68.6091 126.942C68.7318 126.759 68.9211 126.599 69.0598 126.424C69.0811 126.396 69.1291 126.346 69.1771 126.3ZM43.7998 126.504C43.8944 126.641 44.1371 126.994 44.1864 127.057C44.6171 127.606 44.7878 128.27 45.1718 128.843C45.9771 130.046 47.8411 132.658 48.4331 133.91C48.6224 134.306 48.4531 134.781 48.0558 134.969C47.6584 135.157 47.1838 134.987 46.9958 134.591C46.4251 133.389 44.6251 130.885 43.8504 129.73C43.4878 129.19 43.3424 128.557 42.9344 128.041C42.8598 127.944 42.5398 127.509 42.4038 127.277C42.3078 127.118 42.2651 126.985 42.2518 126.918C42.1798 126.563 42.3264 126.338 42.4451 126.209C42.5971 126.041 42.8171 125.906 43.1518 125.954C43.4651 125.998 43.7104 126.22 43.7998 126.504ZM58.7358 133.507C58.7304 133.507 58.7238 133.507 58.7184 133.507C58.2798 133.484 57.9051 133.819 57.8798 134.258C57.8571 134.697 58.1931 135.071 58.6331 135.096C58.6371 135.097 58.6438 135.097 58.6504 135.097C59.0878 135.121 59.4651 134.784 59.4878 134.345C59.5118 133.906 59.1744 133.531 58.7358 133.507ZM53.6784 135.049C53.6598 135.068 53.6398 135.085 53.6211 135.101C53.6011 135.118 53.5811 135.133 53.5611 135.147C53.5998 135.122 53.6384 135.09 53.6784 135.049ZM55.4198 134.185L55.4238 134.164C55.4958 133.73 55.9064 133.437 56.3398 133.509C56.7718 133.581 57.0664 133.99 56.9944 134.424C56.9744 134.538 56.9851 134.487 56.9651 134.571C56.8571 134.998 56.4238 135.257 55.9984 135.15C55.5731 135.043 55.3131 134.61 55.4198 134.185ZM52.4291 134.902C52.2624 134.625 52.2758 134.262 52.4891 133.994C52.7251 133.7 52.9704 133.672 53.1078 133.664C53.3224 133.652 53.5091 133.714 53.6691 133.846C53.7731 133.931 53.8824 134.063 53.9398 134.257C53.9824 134.401 53.9798 134.672 53.9544 134.793C53.8624 135.222 53.4411 135.497 53.0118 135.405C52.7344 135.347 52.5211 135.15 52.4291 134.902ZM51.7864 135.462C51.7811 135.487 51.7744 135.513 51.7678 135.538C51.7598 135.563 51.7504 135.588 51.7424 135.613C51.7691 135.543 51.7811 135.497 51.7864 135.462ZM60.0171 134.888C60.0078 134.494 60.2904 134.146 60.6891 134.083C61.1238 134.015 61.5291 134.313 61.5984 134.746C61.6224 134.896 61.6078 135.009 61.5838 135.157C61.5184 135.591 61.1118 135.889 60.6784 135.822C60.2438 135.757 59.9451 135.349 60.0118 134.916L60.0171 134.888ZM50.2211 135.492C50.2078 135.461 50.1518 135.296 50.2678 135.01C50.4344 134.602 50.8998 134.409 51.3051 134.574C51.6184 134.702 51.8051 135.007 51.8011 135.326C51.8184 135.748 51.5038 136.113 51.0798 136.153C50.6611 136.192 50.2878 135.9 50.2211 135.492ZM39.1171 129.458C40.6371 131.847 42.9704 133.766 44.3504 136.21C44.5651 136.594 45.0504 136.729 45.4331 136.514C45.8158 136.298 45.9518 135.813 45.7358 135.43C44.3438 132.959 41.9958 131.017 40.4598 128.603C40.2238 128.233 39.7318 128.124 39.3611 128.36C38.9904 128.596 38.8811 129.088 39.1171 129.458ZM63.1424 135.208H63.1144C62.6758 135.208 62.3198 135.563 62.3198 136.002C62.3198 136.442 62.6758 136.798 63.1144 136.798H63.1424C63.5811 136.798 63.9371 136.442 63.9371 136.002C63.9371 135.563 63.5811 135.208 63.1424 135.208ZM71.8824 129.55C71.9651 129.434 72.2558 129.032 72.3371 128.959C72.6118 128.714 72.8851 128.733 73.0264 128.757C73.4584 128.832 73.7478 129.243 73.6731 129.677C73.6398 129.863 73.5464 130.022 73.4144 130.138C73.3144 130.271 72.9864 130.709 72.9171 130.762C70.8638 132.327 69.2438 134.665 67.5051 136.562C67.2078 136.886 66.7038 136.908 66.3811 136.611C66.0571 136.316 66.0344 135.812 66.3318 135.487C68.1118 133.543 69.7891 131.17 71.8824 129.55ZM48.1878 136.66C47.9144 136.34 47.9358 135.857 48.2464 135.565C48.5651 135.262 49.0691 135.277 49.3704 135.596C49.4424 135.673 49.5331 135.803 49.5851 135.897C49.8024 136.278 49.6678 136.765 49.2864 136.981C48.9038 137.198 48.4171 137.063 48.2011 136.681L48.1878 136.66ZM64.8304 136.741C64.8291 136.742 64.8264 136.745 64.8251 136.748C64.5278 137.071 64.5504 137.574 64.8744 137.872C65.1984 138.167 65.7011 138.146 65.9984 137.821C66.0011 137.819 66.0024 137.818 66.0051 137.816C66.3024 137.492 66.2784 136.987 65.9558 136.69C65.6318 136.394 65.1278 136.417 64.8304 136.741ZM46.2838 138.409C45.8984 138.209 45.7464 137.733 45.9438 137.344C46.1424 136.953 46.6224 136.797 47.0144 136.996C47.2064 137.094 47.1371 137.058 47.2131 137.124C47.5491 137.406 47.5918 137.908 47.3091 138.243C47.0611 138.54 46.6424 138.607 46.3171 138.429L46.3211 138.43C46.3531 138.446 46.3704 138.451 46.3704 138.451C46.3704 138.451 46.3384 138.437 46.2944 138.414L46.2531 138.389L46.2224 138.366C46.2478 138.386 46.2691 138.401 46.2878 138.411L46.2838 138.409ZM37.0038 132.406C37.1304 132.526 37.4024 132.785 37.4278 132.805C37.9558 133.223 38.4584 133.7 39.0144 134.077C40.6171 135.167 41.9691 136.654 43.5798 137.7C43.9464 137.938 44.0518 138.431 43.8118 138.799C43.5744 139.169 43.0811 139.273 42.7118 139.034C41.0918 137.982 39.7318 136.49 38.1184 135.393C37.5304 134.993 36.9971 134.494 36.4384 134.052C36.3918 134.015 35.9371 133.615 35.7438 133.393C35.5771 133.202 35.5118 133.021 35.4918 132.934C35.4278 132.643 35.5171 132.428 35.6371 132.27C35.7544 132.111 35.9411 131.958 36.2638 131.949C36.5878 131.941 36.8731 132.129 37.0038 132.406ZM69.5318 139.078C71.5371 137.943 73.4304 136.71 75.3918 135.521C76.0131 135.145 76.8891 134.84 77.4118 134.334C77.7278 134.029 77.7371 133.525 77.4304 133.21C77.1264 132.893 76.6224 132.885 76.3051 133.19C75.8611 133.619 75.0944 133.841 74.5678 134.16C72.6198 135.341 70.7411 136.566 68.7478 137.693C68.3664 137.909 68.2318 138.396 68.4478 138.778C68.6638 139.16 69.1504 139.294 69.5318 139.078ZM67.0238 138.621C67.0158 138.624 67.0078 138.626 66.9998 138.629C66.5851 138.775 66.3664 139.23 66.5131 139.643C66.6584 140.058 67.1131 140.276 67.5264 140.13C67.5358 140.127 67.5438 140.125 67.5518 140.122C67.9664 139.975 68.1838 139.521 68.0384 139.108C67.8931 138.693 67.4371 138.476 67.0238 138.621ZM45.6678 139.213C45.6584 139.207 45.6491 139.202 45.6398 139.197C45.2651 138.967 44.7744 139.086 44.5464 139.461C44.3171 139.835 44.4358 140.326 44.8104 140.554C44.8198 140.561 44.8291 140.566 44.8398 140.571C45.2144 140.801 45.7038 140.682 45.9331 140.307C46.1611 139.931 46.0424 139.442 45.6678 139.213ZM71.2504 141.683C74.0318 140.863 76.6051 138.918 79.2998 137.785C79.7038 137.616 79.8944 137.149 79.7238 136.743C79.5531 136.34 79.0864 136.149 78.6824 136.318C76.0411 137.429 73.5264 139.353 70.8011 140.157C70.3798 140.282 70.1384 140.725 70.2624 141.146C70.3864 141.567 70.8304 141.809 71.2504 141.683ZM42.1864 140.492C39.5251 139.414 36.6931 138.47 34.1264 137.189C33.7331 136.993 33.2544 137.153 33.0598 137.546C32.8624 137.938 33.0238 138.417 33.4144 138.613C36.0198 139.911 38.8904 140.874 41.5891 141.966C41.9971 142.131 42.4611 141.934 42.6251 141.527C42.7904 141.121 42.5931 140.657 42.1864 140.492ZM68.9998 142.251C68.6678 142.316 68.3171 142.16 68.1491 141.847C67.9411 141.46 68.0864 140.977 68.4731 140.769C68.6051 140.698 68.9664 140.661 68.9664 140.661C68.9664 140.661 68.9371 140.662 68.9251 140.664C69.3624 140.626 69.7478 140.953 69.7838 141.39C69.8211 141.827 69.4958 142.211 69.0584 142.249C69.0424 142.25 69.0224 142.25 68.9998 142.251ZM44.6171 142.006C44.6118 141.993 44.6064 141.981 44.6024 141.967C44.4438 141.558 43.9811 141.355 43.5731 141.514C43.1624 141.673 42.9598 142.134 43.1184 142.543C43.1238 142.557 43.1291 142.57 43.1344 142.582C43.2931 142.991 43.7531 143.194 44.1624 143.035C44.5731 142.877 44.7758 142.416 44.6171 142.006ZM71.4478 144.765C71.8078 144.901 72.3318 144.889 72.8931 144.76C73.4344 144.634 74.0291 144.402 74.4038 144.358C76.5584 144.105 79.0291 144.151 81.0811 143.405C81.4918 143.254 81.7051 142.797 81.5544 142.385C81.4051 141.972 80.9478 141.76 80.5344 141.909C78.5971 142.615 76.2544 142.539 74.2184 142.777C73.8598 142.819 73.3224 142.998 72.7944 143.143C72.5904 143.198 72.3904 143.247 72.2064 143.267C72.1331 143.277 72.0651 143.297 72.0131 143.277C71.6024 143.121 71.1411 143.327 70.9864 143.738C70.8304 144.149 71.0371 144.609 71.4478 144.765ZM68.9598 143.883C68.9771 143.858 69.0918 143.705 69.1931 143.618C69.5291 143.335 70.0318 143.379 70.3144 143.715C70.5838 144.037 70.5571 144.509 70.2611 144.795C70.2384 144.829 70.1944 144.886 70.1611 144.925C69.8704 145.254 69.3664 145.285 69.0384 144.994C68.7131 144.707 68.6798 144.213 68.9598 143.883ZM32.0078 143.02C32.1931 142.982 32.4451 143.104 32.7078 143.201C33.1571 143.363 33.6104 143.561 33.9358 143.641C36.1024 144.177 38.2038 145.019 40.4064 145.407C40.8371 145.483 41.2504 145.194 41.3264 144.762C41.4024 144.329 41.1131 143.917 40.6811 143.841C38.5158 143.459 36.4491 142.623 34.3171 142.097C33.9664 142.01 33.4544 141.764 32.9758 141.609C32.4958 141.454 32.0331 141.39 31.6904 141.459C31.2598 141.548 30.9811 141.969 31.0691 142.399C31.1558 142.829 31.5771 143.108 32.0078 143.02ZM43.2091 144.297C43.1291 144.284 43.0491 144.274 42.9678 144.267C42.5291 144.235 42.1478 144.563 42.1144 145.002C42.0811 145.439 42.4118 145.822 42.8491 145.854C42.8798 145.857 42.9104 145.861 42.9424 145.866C43.3744 145.94 43.7864 145.647 43.8598 145.214C43.9331 144.782 43.6411 144.37 43.2091 144.297ZM42.9718 146.27C42.8998 146.262 42.9398 146.265 42.8504 146.26C42.4131 146.229 42.0318 146.559 42.0011 146.997C41.9704 147.434 42.3011 147.816 42.7384 147.847C42.7864 147.85 42.7638 147.849 42.8038 147.851C43.2411 147.898 43.6331 147.582 43.6798 147.145C43.7264 146.709 43.4091 146.317 42.9718 146.27ZM70.1224 148.095C69.8011 148.178 69.4478 148.05 69.2571 147.755C69.0211 147.386 69.1278 146.893 69.4971 146.655C69.6864 146.534 70.0251 146.478 70.2438 146.52C70.6744 146.604 70.9571 147.021 70.8731 147.453C70.8024 147.822 70.4838 148.082 70.1224 148.095ZM81.0704 148.01C80.9624 148.015 80.3411 148.046 80.2611 148.054C79.5718 148.126 78.8264 148.183 78.1358 148.155C76.2678 148.078 74.1704 147.789 72.3011 148.001C71.8638 148.05 71.4704 147.737 71.4198 147.301C71.3704 146.865 71.6851 146.47 72.1211 146.421C74.0678 146.198 76.2544 146.486 78.1998 146.566C78.8158 146.591 79.4798 146.537 80.0944 146.471C80.2051 146.461 80.9864 146.414 81.1291 146.418C81.8118 146.437 81.9144 147.074 81.9198 147.146C81.9371 147.338 81.9024 147.563 81.6944 147.774C81.5251 147.948 81.2958 148.026 81.0704 148.01ZM40.3811 146.288C39.2091 146.563 33.1504 146.761 31.8131 146.542C31.3811 146.472 30.9704 146.766 30.9011 147.199C30.8304 147.633 31.1251 148.042 31.5584 148.113C32.9904 148.346 39.4891 148.131 40.7451 147.837C41.1731 147.737 41.4384 147.307 41.3371 146.881C41.2371 146.453 40.8078 146.188 40.3811 146.288ZM43.2678 149.809C43.5944 149.903 43.8358 150.203 43.8398 150.562C43.8464 151.001 43.4944 151.362 43.0544 151.367C42.8651 151.37 42.6984 151.303 42.5358 151.221C42.1451 151.022 41.9878 150.543 42.1864 150.151C42.3851 149.761 42.8638 149.604 43.2544 149.802L43.2678 149.809ZM69.1504 149.847C69.5331 149.642 70.0131 149.785 70.2224 150.166C70.4331 150.552 70.2931 151.035 69.9091 151.246C69.7651 151.325 69.8384 151.293 69.6904 151.345C69.2744 151.489 68.8198 151.27 68.6758 150.855C68.5318 150.446 68.7451 149.997 69.1504 149.847ZM44.0944 152.157L44.1264 152.165C44.1144 152.162 44.1038 152.16 44.0944 152.157ZM43.9344 152.158C43.9291 152.16 43.9238 152.159 43.9184 152.161C43.9144 152.162 43.9078 152.163 43.9024 152.166L43.9344 152.158ZM32.0931 153.694C33.6531 153.736 35.1544 153.286 36.6478 152.794C37.9824 152.353 39.3091 151.877 40.6798 151.81C41.1184 151.79 41.4571 151.417 41.4358 150.978C41.4144 150.539 41.0411 150.199 40.6024 150.221C39.0918 150.293 37.6224 150.797 36.1491 151.282C34.8331 151.717 33.5118 152.141 32.1358 152.103C31.6958 152.091 31.3304 152.438 31.3184 152.877C31.3064 153.317 31.6544 153.682 32.0931 153.694ZM44.0171 152.145C44.4024 152.103 44.7718 152.35 44.8704 152.738C44.9798 153.163 44.7238 153.597 44.2998 153.708C44.0838 153.762 43.9398 153.76 43.7344 153.708C43.3078 153.598 43.0504 153.165 43.1584 152.739C43.2571 152.35 43.6291 152.101 44.0171 152.145ZM71.1598 151.87C71.9624 152.198 72.8984 152.173 73.7251 152.409C75.8531 153.017 78.0918 153.233 80.2224 153.821C80.6451 153.938 81.0838 153.69 81.2011 153.267C81.3184 152.843 81.0704 152.405 80.6464 152.289C78.5224 151.699 76.2864 151.486 74.1624 150.878C73.3904 150.658 72.5118 150.705 71.7624 150.398C71.3571 150.232 70.8918 150.426 70.7251 150.833C70.5598 151.238 70.7531 151.704 71.1598 151.87ZM68.7598 154.648C68.3611 154.777 67.9264 154.574 67.7731 154.179C67.6144 153.77 67.8171 153.309 68.2264 153.15C68.3518 153.101 68.4398 153.083 68.5691 153.069C69.0051 153.014 69.4024 153.323 69.4558 153.76C69.5104 154.195 69.1984 154.593 68.7638 154.648H68.7598ZM66.9838 154.947C66.9784 154.949 66.9731 154.949 66.9678 154.95C66.5344 155.022 66.2411 155.431 66.3118 155.865C66.3851 156.298 66.7944 156.591 67.2278 156.519C67.2331 156.518 67.2384 156.518 67.2451 156.517C67.6771 156.446 67.9704 156.035 67.8998 155.602C67.8278 155.169 67.4171 154.875 66.9838 154.947ZM45.5624 155.288C45.5051 155.293 45.5331 155.29 45.4758 155.294C45.0371 155.321 44.7038 155.7 44.7331 156.138C44.7598 156.577 45.1384 156.91 45.5771 156.882C45.6691 156.877 45.6238 156.879 45.7131 156.872C46.1504 156.829 46.4704 156.441 46.4304 156.003C46.3891 155.567 45.9998 155.245 45.5624 155.288ZM47.4184 157.585C47.4824 157.603 47.5411 157.631 47.5944 157.663C47.6491 157.697 47.6984 157.737 47.7438 157.781C47.6824 157.714 47.5838 157.634 47.4184 157.585ZM65.4744 158.693C65.4811 158.691 65.4864 158.69 65.4891 158.689C65.4931 158.687 65.4944 158.687 65.4944 158.687L65.4744 158.693ZM34.0144 157.115C34.0851 157.087 34.2478 157.021 34.3518 156.962C34.9024 156.652 35.5024 156.158 35.7531 156.01C37.5824 154.927 39.7331 154.338 41.6171 153.346C42.0064 153.142 42.4878 153.292 42.6918 153.681C42.8971 154.069 42.7478 154.55 42.3584 154.755C40.4971 155.734 38.3704 156.312 36.5638 157.379C36.2544 157.562 35.4411 158.229 34.7971 158.519C34.2558 158.765 33.7624 158.757 33.4451 158.59C33.0558 158.386 32.9051 157.905 33.1091 157.515C33.2838 157.182 33.6638 157.024 34.0144 157.115ZM65.4091 158.713C64.9998 158.815 64.5771 158.578 64.4544 158.17C64.3278 157.749 64.5664 157.305 64.9864 157.179C65.1731 157.123 65.1651 157.121 65.3478 157.126C65.7864 157.142 66.1318 157.51 66.1158 157.949C66.1024 158.349 65.7958 158.67 65.4091 158.713ZM47.5158 159.066C47.3544 159.139 47.1678 159.161 46.9824 159.114C46.5718 159.009 46.4771 158.742 46.4371 158.645C46.3558 158.446 46.3558 158.251 46.4278 158.057C46.4731 157.939 46.5531 157.801 46.7158 157.686C46.7611 157.655 47.0664 157.546 47.0664 157.546C47.0664 157.546 46.9544 157.578 46.9251 157.59C47.3291 157.418 47.7971 157.606 47.9704 158.01C48.1411 158.414 47.9531 158.882 47.5491 159.054L47.5158 159.066ZM70.1411 155.651C72.9651 156.854 76.0131 157.702 78.7304 159.129C79.1184 159.333 79.5998 159.182 79.8038 158.793C80.0078 158.405 79.8584 157.923 79.4691 157.719C76.7144 156.274 73.6278 155.407 70.7664 154.186C70.3624 154.015 69.8958 154.203 69.7224 154.608C69.5504 155.011 69.7384 155.479 70.1411 155.651ZM53.4411 160.001L53.4144 159.997C53.4224 159.998 53.4411 160.001 53.4411 160.001ZM63.1464 160.201C63.1678 160.199 63.1931 160.197 63.2238 160.19C63.2544 160.182 63.2944 160.17 63.3451 160.15C63.2798 160.177 63.2131 160.193 63.1464 160.201ZM63.0798 160.206C62.7518 160.218 62.4384 160.026 62.3104 159.706C62.1478 159.298 62.3478 158.835 62.7544 158.673C62.9144 158.609 62.9704 158.615 63.0224 158.613C63.0678 158.61 63.2144 158.627 63.2144 158.627C63.2144 158.627 63.1904 158.622 63.1638 158.62C63.5998 158.665 63.9171 159.057 63.8718 159.493C63.8291 159.903 63.4811 160.207 63.0798 160.206ZM49.3824 160.602C49.3904 160.603 49.3971 160.605 49.4051 160.606L49.3598 160.595L49.3824 160.602ZM49.3558 160.594L49.3491 160.591C48.9251 160.473 48.6798 160.033 48.7984 159.61C48.9158 159.187 49.3571 158.941 49.7798 159.059C49.9224 159.099 49.8651 159.081 49.9504 159.118C50.3544 159.293 50.5384 159.763 50.3624 160.165C50.1931 160.555 49.7478 160.741 49.3558 160.594ZM50.8038 159.867C50.7984 159.875 50.7918 159.881 50.7864 159.887C50.5104 160.229 50.5624 160.73 50.9038 161.007C51.2438 161.283 51.7451 161.233 52.0224 160.891C52.0264 160.883 52.0331 160.877 52.0384 160.871C52.3144 160.53 52.2624 160.029 51.9211 159.751C51.5811 159.475 51.0798 159.527 50.8038 159.867ZM60.7651 161.245C60.7824 161.241 60.8024 161.235 60.8251 161.226C60.8491 161.217 60.8758 161.205 60.9104 161.187C60.8624 161.211 60.8144 161.231 60.7651 161.245ZM60.6851 161.265C60.3504 161.326 60.0011 161.167 59.8358 160.85C59.6331 160.461 59.7824 159.981 60.1718 159.777C60.3158 159.702 60.3691 159.699 60.4158 159.69C60.4638 159.682 60.6131 159.679 60.6131 159.679C60.6131 159.679 60.5944 159.679 60.5758 159.679C61.0144 159.669 61.3798 160.017 61.3891 160.455C61.3998 160.87 61.0878 161.219 60.6851 161.265ZM56.0918 161.385C56.0864 161.379 56.0824 161.375 56.0784 161.371C56.0744 161.366 56.0691 161.362 56.0651 161.357L56.0918 161.385ZM53.1931 161.573C52.8824 161.569 52.5878 161.381 52.4651 161.074C52.3011 160.667 52.4971 160.203 52.9051 160.039C53.0531 159.979 53.4264 160.001 53.4411 160.001C53.8598 160.078 54.1478 160.475 54.0838 160.901C54.0211 161.33 53.6238 161.629 53.1931 161.573ZM58.0131 160.262L57.9851 160.261C57.5464 160.233 57.1691 160.566 57.1411 161.003C57.1131 161.442 57.4464 161.821 57.8851 161.849L57.9131 161.85C58.3504 161.877 58.7291 161.543 58.7558 161.106C58.7838 160.667 58.4504 160.29 58.0131 160.262ZM56.2344 162.141L56.2291 162.154L56.2344 162.141ZM56.2051 162.205L56.1878 162.238C56.1931 162.226 56.1998 162.215 56.2051 162.205ZM56.2824 161.713C56.3584 161.975 56.2984 162.269 56.0971 162.482C55.7971 162.802 55.2931 162.817 54.9718 162.515C54.7891 162.342 54.7144 162.158 54.6931 161.973C54.6784 161.823 54.6904 161.65 54.8064 161.446C55.0251 161.066 55.5131 160.933 55.8931 161.153C56.1091 161.275 56.2451 161.485 56.2824 161.713ZM36.4518 163.022C37.4478 162.745 37.9918 162.11 38.7651 161.511C39.9131 160.625 41.1984 160.051 42.4518 159.342C42.7544 159.17 43.1224 158.927 43.4251 158.753C43.7624 158.559 43.9224 158.327 44.1971 158.165C44.5758 157.939 44.6984 157.451 44.4731 157.074C44.2478 156.697 43.7598 156.573 43.3824 156.797C43.0851 156.974 42.9224 157.238 42.5758 157.435C42.3038 157.591 41.8864 157.877 41.6171 158.03C40.3024 158.775 38.9971 159.321 37.7931 160.253C37.1878 160.719 36.8024 161.273 36.0251 161.489C35.6011 161.607 35.3544 162.046 35.4718 162.47C35.5891 162.893 36.0278 163.141 36.4518 163.022ZM69.7344 157.169C70.2344 157.725 71.6224 158.841 71.7331 158.934C72.4344 159.531 73.0704 160.326 73.7304 161.079C74.2971 161.727 74.8758 162.35 75.5744 162.714C75.9638 162.917 76.1144 163.398 75.9104 163.787C75.7064 164.177 75.2264 164.327 74.8371 164.125C73.9731 163.674 73.2331 162.929 72.5318 162.127C71.9251 161.433 71.3478 160.695 70.7011 160.146C70.6064 160.066 69.6104 159.255 68.9558 158.638C68.5798 158.283 68.3104 157.955 68.2358 157.793C68.1171 157.538 68.1371 157.326 68.1771 157.179C68.2451 156.937 68.3931 156.747 68.6544 156.637C69.0584 156.465 69.5251 156.656 69.6971 157.059C69.7118 157.097 69.7251 157.131 69.7344 157.169ZM65.8518 160.587C68.0531 162.39 69.5411 165.239 71.4318 167.362C71.7251 167.691 72.2278 167.719 72.5558 167.427C72.8838 167.135 72.9131 166.631 72.6211 166.305C70.6771 164.122 69.1238 161.21 66.8598 159.357C66.5211 159.078 66.0184 159.127 65.7411 159.467C65.4624 159.807 65.5118 160.309 65.8518 160.587ZM40.3131 166.959C40.2931 167.242 40.1211 167.505 39.8438 167.627C39.4411 167.806 38.9704 167.625 38.7931 167.223C38.6704 166.946 38.6824 166.683 38.7798 166.433C38.8331 166.297 38.9331 166.162 39.0144 166.041C40.5358 163.787 42.7811 161.754 44.4851 159.602C44.6931 159.341 44.9184 159.015 45.1864 158.807C45.5318 158.538 46.0318 158.601 46.3038 158.947C46.5731 159.294 46.5104 159.794 46.1624 160.063C45.9918 160.198 45.8664 160.422 45.7331 160.591C44.0531 162.711 41.8344 164.71 40.3331 166.931L40.3131 166.959ZM43.2464 168.979C43.3384 168.793 43.5278 168.657 43.6971 168.506C43.9038 168.321 44.1011 168.133 44.2504 167.931C45.2171 166.623 46.1918 165.269 47.1078 163.93C47.3118 163.631 47.5304 163.111 47.7824 162.626C47.8771 162.443 47.9744 162.267 48.0864 162.125C48.1318 162.067 48.1651 162.007 48.2184 161.986C48.6251 161.818 48.8171 161.351 48.6491 160.946C48.4811 160.541 48.0158 160.347 47.6091 160.515C47.2104 160.681 46.8331 161.078 46.5331 161.594C46.2451 162.091 46.0171 162.709 45.7958 163.03C44.8891 164.354 43.9264 165.693 42.9704 166.985C42.8171 167.193 42.5771 167.367 42.3718 167.562C42.1438 167.781 41.9464 168.015 41.8171 168.278C41.6251 168.673 41.7878 169.15 42.1824 169.343C42.5758 169.537 43.0531 169.374 43.2464 168.979ZM64.7984 161.478C64.8211 161.534 64.8851 161.684 64.9371 161.786C65.1118 162.134 65.3278 162.494 65.3851 162.622C66.1251 164.262 66.7571 165.95 67.4851 167.601C67.5758 167.807 67.6904 168.101 67.8318 168.377C67.9131 168.534 67.9838 168.698 68.0984 168.771C68.4678 169.01 68.5744 169.503 68.3344 169.871C68.0971 170.241 67.6038 170.347 67.2358 170.109C66.9758 169.941 66.7318 169.655 66.5318 169.314C66.3211 168.953 66.1518 168.525 66.0278 168.242C65.3038 166.595 64.6718 164.911 63.9344 163.275C63.8478 163.081 63.4078 162.361 63.2731 161.933C63.1824 161.643 63.1931 161.398 63.2371 161.241C63.3571 160.819 63.7971 160.573 64.2198 160.691C64.5771 160.793 64.8064 161.123 64.7984 161.478ZM47.7291 170.682C47.7958 171.082 47.5464 171.475 47.1464 171.581C46.7224 171.693 46.2864 171.438 46.1744 171.014C46.1131 170.779 46.1518 170.238 46.3691 169.519C46.9944 167.443 48.8918 163.219 49.3731 162.069C49.5438 161.663 50.0104 161.473 50.4144 161.643C50.8198 161.813 51.0118 162.279 50.8411 162.683C50.4251 163.674 48.9438 166.978 48.1664 169.157C47.9278 169.827 47.7478 170.595 47.7291 170.682ZM65.1918 171.03C63.7491 168.457 63.0384 165.317 62.0211 162.554C61.8678 162.142 61.4118 161.931 60.9984 162.083C60.5864 162.235 60.3758 162.693 60.5264 163.105C61.5744 165.943 62.3211 169.163 63.8038 171.807C64.0171 172.19 64.5024 172.327 64.8864 172.113C65.2691 171.898 65.4064 171.413 65.1918 171.03ZM52.8344 163.33C52.7851 163.594 52.5078 165.065 52.4891 165.151C51.9998 167.51 51.7251 169.918 51.2531 172.271C51.1664 172.702 50.7478 172.982 50.3158 172.895C49.8864 172.809 49.6064 172.389 49.6931 171.959C50.1664 169.602 50.4411 167.19 50.9304 164.829C50.9558 164.713 51.2344 162.943 51.4224 162.571C51.6118 162.198 51.9064 162.103 52.0771 162.081C52.5118 162.019 52.9144 162.323 52.9744 162.758C53.0051 162.967 52.9491 163.17 52.8344 163.33ZM59.2064 163.565C59.2424 164.359 59.5891 165.167 59.6491 165.981C59.8038 168.047 60.3664 170.326 60.2371 172.39C60.2091 172.829 59.8318 173.162 59.3931 173.134C58.9558 173.107 58.6224 172.729 58.6491 172.291C58.7744 170.295 58.2118 168.097 58.0638 166.098C57.9998 165.25 57.6398 164.403 57.6158 163.575C57.6118 163.481 57.6011 163.311 57.6238 163.202C57.6518 163.058 57.7104 162.938 57.7811 162.845C57.9344 162.639 58.1478 162.507 58.4571 162.507C58.8958 162.507 59.2518 162.863 59.2518 163.302C59.2518 163.395 59.2371 163.483 59.2064 163.565ZM56.2824 172.53C56.0958 169.703 56.3464 166.838 56.3478 164.019C56.3478 163.579 55.9918 163.223 55.5518 163.223C55.1131 163.223 54.7558 163.579 54.7558 164.018C54.7544 166.873 54.5064 169.773 54.6944 172.634C54.7238 173.073 55.1024 173.405 55.5411 173.377C55.9784 173.347 56.3104 172.969 56.2824 172.53Z" fill="#E8DDCD"/>
<path fill-rule="evenodd" clip-rule="evenodd" d="M76.919 22.552C77.0323 21.4347 77.0737 20.2947 77.2243 19.0787C77.367 17.9134 77.8017 16.8134 77.9577 15.6507C78.2577 13.4241 78.0403 11.2067 78.6617 9.00672C79.1043 7.44006 79.903 6.17072 80.7403 4.79205C81.4217 3.66805 81.991 2.47606 82.4697 1.25072C82.5443 1.06139 82.7697 0.0613861 82.951 4.57764e-05C82.9603 -0.00395203 83.179 0.344055 83.2057 0.384048C83.5003 0.822723 83.7377 1.21872 83.891 1.72139C84.4897 3.69604 84.895 5.73605 84.7857 7.78272C84.679 9.76405 84.075 11.6054 83.415 13.4507C82.4643 16.1014 81.415 18.6841 80.027 21.1414C79.147 22.704 78.151 24.1934 77.1977 25.7094C76.4043 27.9694 75.503 30.184 74.5003 32.3507C75.311 31.688 76.183 31.12 77.043 30.6814C78.2577 30.0614 79.6203 29.6694 80.8257 29.0267C82.267 27.5067 83.8417 26.0134 85.0043 24.2961C85.811 23.1067 86.159 21.6894 86.8803 20.4494C88.7137 17.2974 91.571 16.3641 95.019 15.7894C95.6043 15.6921 96.1843 15.5774 96.743 15.3827C97.023 15.2867 97.3723 14.8121 97.5643 15.0427C97.7163 15.2267 96.9523 16.2787 96.883 16.3921C95.9923 17.8481 95.5243 19.5241 94.5603 20.9307C91.0577 26.0441 85.8123 29.0267 79.779 30.1134C78.9497 30.4547 78.1003 30.7627 77.3123 31.1654C76.1243 31.7707 74.911 32.632 73.883 33.648C72.5523 36.38 71.055 39.0334 69.4003 41.6094C67.4363 44.6694 65.135 47.5321 63.063 50.5334C64.4163 49.7614 65.943 49.2001 67.319 48.652C68.4923 48.1854 69.5923 47.5534 70.751 47.0547C71.9737 46.5307 73.3337 46.0827 74.5057 45.4374L74.4857 45.4227C75.215 43.3814 77.4057 40.9507 79.479 40.0907C80.7803 39.552 82.2683 39.4267 83.5403 38.8214C85.3057 37.9801 86.743 36.6507 88.6203 35.9747C89.9657 35.4907 91.3457 35.6441 92.767 35.6947C92.9537 35.7027 94.0163 35.5721 94.1577 35.7067C94.4297 35.9627 93.8923 36.8187 93.7323 37.0854C93.0057 38.2987 91.8523 39.1667 91.0537 40.3214C90.2363 41.4961 89.6723 42.7961 88.4123 43.6067C85.7097 45.3427 82.9177 44.6254 79.9123 44.7974C78.247 44.8934 76.6697 45.4694 75.0417 45.7547C73.795 46.488 72.3123 46.9721 70.9817 47.5427C69.8203 48.0427 68.715 48.6747 67.5377 49.1441C65.8123 49.8307 63.835 50.5227 62.3017 51.664C61.3123 53.1627 60.395 54.7067 59.6203 56.332C56.7923 62.2694 57.6083 66.4614 56.191 72.3294C55.047 77.0654 52.4003 81.8174 50.1257 86.116C48.175 89.8027 45.8123 93.008 43.2217 96.0027C44.2897 95.2214 45.391 94.4867 46.455 93.772C48.871 92.1494 51.207 90.652 53.691 89.4254C54.7483 88.564 55.9003 87.8414 56.9817 87.016C58.163 86.1147 59.275 85.116 60.5083 84.284C60.6297 84.2027 60.751 84.1227 60.871 84.044C61.787 82.4854 63.1683 81.2094 64.1457 79.6787C66.1643 76.52 67.7217 72.6267 70.5377 70.0201C71.4857 69.1414 72.699 68.6267 73.8057 67.9707C74.7977 67.384 75.7483 66.6987 76.5483 65.876C76.6297 65.7907 77.2497 64.968 77.415 64.9761C77.5683 64.984 77.3763 65.2707 77.3537 65.4187C77.307 65.7374 77.251 66.0547 77.191 66.372C76.8817 67.9867 76.3883 69.396 75.471 70.7694C74.0243 72.936 72.4763 75.4574 70.723 77.36C68.4803 79.796 65.671 81.6627 63.0537 83.6734L62.1137 83.8974C61.691 84.1614 61.263 84.428 60.8283 84.7227C59.603 85.5507 58.499 86.5427 57.327 87.4374C58.439 86.9014 59.6643 86.496 60.763 86.0147C63.3617 84.8747 66.0603 83.6494 68.8003 82.8467C71.7163 81.9907 74.7763 81.544 77.6497 80.5574C78.2377 80.3547 78.8137 80.1174 79.3803 79.8587C80.839 78.6 81.9177 76.968 83.139 75.5014C84.203 74.224 85.459 73.1294 86.3857 71.74C87.0577 70.7307 87.4617 69.5107 88.243 68.5814C89.271 67.3627 90.9577 66.9814 92.179 66.0014C92.8497 65.4654 93.5377 64.7774 93.9657 64.0307C94.331 63.3934 94.795 62.2814 95.6537 62.1654C95.939 62.1267 95.5057 64.0534 95.4937 64.3147C95.4323 65.4921 95.699 66.692 95.5883 67.8654C95.5003 68.8134 94.947 69.856 94.4657 70.6507C93.443 72.336 92.039 73.3294 90.407 74.4174C87.215 76.5454 83.7643 78.264 80.3363 80.004L80.3017 80.0134C79.5017 80.4094 78.6883 80.768 77.8417 81.0574C74.9617 82.0467 71.895 82.496 68.971 83.3534C67.1723 83.8827 65.391 84.5947 63.6443 85.3427C67.1883 84.6147 71.1457 84.5027 74.499 85.04C75.9483 85.2734 77.3123 85.928 78.7777 86.1094C80.1257 86.2747 81.4563 85.892 82.8443 86.108C85.2563 86.4827 87.5123 86.94 89.9323 86.5534C90.7377 86.424 91.531 86.2374 92.339 86.1147C92.6043 86.0747 92.8657 86.028 93.1257 85.976C93.2817 85.944 93.6497 85.7294 93.5897 85.8707C93.2803 86.5947 91.6443 87.1907 91.0163 87.544C88.2923 89.0734 85.6697 90.828 82.2977 90.4987C79.291 90.2054 76.159 90.1294 73.175 89.6854C71.6617 89.4587 70.207 88.928 68.6923 88.676C65.0577 88.0734 61.427 87.7254 57.9017 88.252C56.5443 88.7094 55.255 89.2547 54.0043 89.8707C53.975 89.8934 53.943 89.9094 53.9083 89.9174C51.4577 91.132 49.1563 92.6107 46.7723 94.2134C44.811 95.528 42.7257 96.912 40.943 98.528C37.503 102.209 33.7817 105.671 30.1683 109.469C26.4203 113.407 23.951 118.321 20.6923 122.611C21.9257 121.903 23.2403 121.301 24.5883 120.745C26.3323 120.024 28.131 119.379 29.875 118.661C30.3657 115.18 34.8337 114.019 37.747 112.748C43.419 110.277 49.4763 111.34 55.4923 111.261C59.4417 111.213 63.4683 110.147 67.227 109.164C67.359 109.131 67.0003 109.308 66.8843 109.377C66.599 109.548 66.3003 109.693 66.0017 109.841C65.2057 110.236 64.3683 110.547 63.5577 110.916C61.0363 112.068 58.9417 113.8 56.3323 114.879C54.195 115.764 52.4923 117.215 50.215 117.931C46.6657 119.044 42.463 119.232 38.7523 119.84C36.331 120.236 33.267 121.248 30.7977 120.348L29.8537 119.795C29.8363 119.609 29.8297 119.431 29.831 119.257C28.171 119.932 26.467 120.551 24.8123 121.233C23.003 121.981 21.2537 122.804 19.6897 123.876C19.0923 124.599 18.4617 125.299 17.791 125.965C17.2577 126.496 16.6763 126.972 16.063 127.409C16.0483 127.423 16.031 127.435 16.0123 127.445C14.835 128.279 13.5363 128.975 12.215 129.645C10.275 130.629 8.283 131.559 6.595 132.848C6.32834 133.052 5.93767 133 5.72167 132.733C5.50434 132.468 5.54567 132.087 5.811 131.885C7.55767 130.552 9.60967 129.584 11.615 128.565C13.5337 127.593 15.4083 126.577 16.8923 125.101C17.2803 124.717 17.6537 124.32 18.0163 123.915C18.2137 123.523 18.403 123.132 18.603 122.769C20.691 118.987 21.9137 113.147 21.5137 108.335C21.419 108.352 21.3177 108.359 21.211 108.357C18.3403 108.331 17.6257 103.741 16.435 101.931C14.707 99.3027 14.1203 96.0507 13.1577 93.1027C12.743 91.836 11.811 90.4987 11.8283 89.1494C11.8537 87.132 12.7057 85.256 12.9003 83.2747C13.079 81.4934 12.675 79.812 12.7177 78.0547C12.7537 76.5707 13.3203 75.0894 12.879 73.604L12.8337 73C14.335 74.4014 15.4937 75.668 15.8817 77.7587C16.1443 79.188 15.891 80.5867 16.3083 82.0187C17.1083 84.7574 19.6443 86.552 20.539 89.3C21.003 90.7334 20.099 92.2534 20.111 93.6854C20.1297 95.8974 21.1617 97.7294 22.091 99.696C22.979 101.577 23.3803 104.125 23.075 106.152C22.9643 106.891 22.675 107.744 22.039 108.137C22.447 112.653 21.4417 118.087 19.623 121.971C22.959 117.636 25.4417 112.627 29.247 108.629C30.8683 106.925 32.5137 105.289 34.1443 103.673C34.1977 103.488 34.2537 103.305 34.3163 103.129C35.3977 100.092 35.2937 96.9027 35.2883 93.7187C35.275 93.6894 35.267 93.6574 35.2643 93.6241C35.0137 90.0534 34.4243 86.8454 33.2457 83.552C33.2177 83.5254 33.1923 83.492 33.1777 83.4534C32.9923 82.9787 32.8177 82.5 32.655 82.016C32.5937 81.868 32.5323 81.7214 32.4683 81.572C32.1297 80.7774 31.911 79.9134 31.5297 79.132L31.595 79.3547C29.6697 75.9934 25.9337 75.2387 23.267 72.6187C21.3297 70.7134 20.9763 67.7707 19.1043 65.776C17.4777 64.0467 15.2083 63.4654 13.7257 61.544C13.339 61.04 12.9617 60.4974 12.7657 59.8947C12.735 59.804 12.6017 59.112 12.6577 59.1254C13.3737 59.2947 14.5123 60.2774 15.2537 60.58C16.8443 61.2334 18.5643 61.0467 20.0283 62.076C21.1763 62.8827 21.9297 64.008 22.8257 65.048C23.3883 65.7027 24.0537 66.1014 24.467 66.888C25.1497 68.184 25.4923 69.6454 26.207 70.9107C26.647 71.6894 27.3563 72.2787 27.8697 73.0067C28.6377 74.1014 29.347 75.2387 30.1057 76.3427C30.643 76.9614 31.203 77.5734 31.647 78.2574C31.4883 77.4774 31.359 76.6907 31.259 75.9027C31.0683 75.2494 31.0243 74.612 31.0763 73.9894C31.035 73.3414 31.011 72.6934 31.0097 72.0494L30.8163 69.1667C30.0043 64.64 26.9443 60.808 26.027 56.3854C25.663 54.6294 26.2523 52.8267 26.1697 51.0627C26.083 49.16 25.0883 47.0414 26.1817 45.2587C27.1057 43.7561 28.3577 44.4641 28.8497 45.9681C29.3723 47.5694 29.391 49.2894 29.907 50.9187C31.015 54.4174 32.719 57.6574 33.275 61.3027C33.663 63.8454 33.507 66.532 32.6883 68.9454C32.355 69.9227 31.899 70.904 31.555 71.908C31.5457 75.2467 32.0897 78.648 33.1643 81.848C34.2937 84.6027 35.0017 87.2547 35.4217 90.0494C35.4923 89.0747 35.571 88.1054 35.6083 87.128C34.787 84.276 35.1683 81.584 35.083 78.6814C35.0097 76.212 34.4443 74.048 35.447 71.6854C36.011 70.356 37.1603 69.5307 38.0097 68.4027C39.2203 66.8 39.831 64.884 41.0803 63.2827C41.4283 62.8374 41.723 62.396 41.9723 61.8881C42.0577 61.716 42.139 61.5414 42.223 61.368C42.2657 61.2774 42.2843 61.0094 42.3417 61.0947C42.715 61.6374 42.4803 62.7401 42.491 63.3347C42.531 65.3801 42.7283 67.2294 42.431 69.288C42.231 70.672 42.431 72.1067 42.0257 73.456C41.315 75.8267 39.6603 77.9627 38.683 80.248C38.047 81.7374 37.8777 83.2987 37.4577 84.8547C36.979 86.636 36.3243 88.336 35.959 90.1374C35.895 91.0294 35.8403 91.9267 35.8337 92.8347C35.8083 96.2067 36.0123 99.5987 34.9923 102.831C40.295 97.5694 45.387 92.3987 49.019 85.5334C51.251 81.3187 53.8603 76.6627 54.983 72.016C55.6963 69.0627 55.859 66.528 56.1937 63.9894C56.043 62.5787 55.6057 61.2174 55.1497 59.8574C54.9243 59.18 54.695 58.5027 54.4937 57.8214C54.0403 56.6721 53.7777 55.4627 53.3217 54.3187C52.8363 53.104 52.1737 51.944 51.7337 50.716C51.4763 49.9987 51.327 49.2561 51.1617 48.516L51.023 48.1147C50.2137 46.7707 49.7923 45.0774 48.5417 44.0254C47.7817 43.3881 46.8257 43.108 45.9963 42.5867C44.663 41.7494 42.7923 40.22 41.927 38.9214C40.931 37.4254 40.6617 35.5347 39.7403 33.9681C39.139 32.9454 38.0243 32.524 37.3617 31.5867C36.2723 30.0427 36.6497 27.5147 37.0163 25.8427C37.335 24.3987 37.3377 23.164 37.2017 21.6974C37.1777 21.4494 37.2523 20.7601 37.6817 20.9147C38.9937 21.3894 38.751 24.0014 39.7923 24.9294C41.2137 26.1921 43.0617 26.6667 44.239 28.2734C46.155 30.888 46.3537 34.0761 47.291 37.0414C48.0243 39.3627 49.3457 41.5387 50.1777 43.8414C50.343 44.3014 50.4937 44.7614 50.631 45.2227C50.8923 45.8107 51.1323 46.4041 51.327 47.0067C51.6977 48.1734 51.831 49.3987 52.2443 50.5547C52.683 51.7761 53.3443 52.9321 53.8257 54.1387C53.8363 54.1614 53.843 54.1854 53.8523 54.208C53.8403 52.6281 54.267 51.052 54.563 49.5254C54.6537 49.06 54.7257 48.592 54.787 48.1214V48.1121C54.7337 46.4454 54.6297 44.5881 54.1097 42.9774C53.3937 40.7654 52.0763 38.5734 52.035 36.2214C52.003 34.4494 53.2123 33.024 53.6403 31.3694C53.9657 30.1214 53.9097 28.7281 54.379 27.5307C54.4323 27.3921 54.739 26.5174 54.9083 26.508C55.079 26.4987 55.323 27.8694 55.3483 28.02C55.6697 29.8214 56.387 31.4987 56.807 33.2747C57.3603 35.6147 57.607 38.1894 57.6563 40.576C57.679 41.6747 57.7483 42.8294 57.463 43.8947C56.8857 46.0534 55.779 48.0187 55.0057 50.0894C54.691 51.608 54.2963 53.1721 54.4177 54.7334C54.495 55.7281 54.7203 56.6974 55.003 57.6547C55.0083 57.6667 55.0097 57.6787 55.0137 57.692C55.215 58.3654 55.443 59.036 55.667 59.7067C55.955 60.5721 56.235 61.4374 56.4443 62.316C56.7977 60.276 57.359 58.1734 58.4923 55.7947C61.0577 50.4134 65.139 45.9347 68.343 40.9427C69.3123 39.4347 70.227 37.8987 71.0843 36.3334C71.1857 35.6187 71.2243 34.8934 71.2243 34.164C71.167 34.1147 71.1297 34.0441 71.1297 33.9654C71.1083 32.4121 70.2723 31.2107 69.1043 30.3174C68.567 29.9054 67.9603 29.5587 67.3297 29.2734C65.659 29.0707 63.8857 29.5334 62.267 28.9841C60.9003 28.5201 59.8923 27.4667 58.843 26.5321C57.939 25.7254 56.771 25.0347 56.023 24.0841C54.3243 21.924 53.955 18.8414 53.515 16.2681C53.4817 16.0774 53.6057 16.6454 53.6657 16.8307C53.783 17.2027 53.9457 17.592 54.2457 17.8654C55.207 18.7414 56.4363 19.4921 57.5097 20.2267C58.119 20.6467 58.883 20.9254 59.407 21.4507C60.9523 23.0001 62.059 25 63.6283 26.4987C64.435 27.2694 65.4243 27.7401 66.355 28.328C67.443 28.692 68.5297 29.2134 69.4297 29.904C70.1523 30.4574 70.755 31.116 71.1537 31.8894C71.1443 31.712 71.1363 31.536 71.127 31.3614C71.071 30.2334 70.983 29.1614 70.6217 28.0747C70.2243 26.8734 69.667 25.7387 69.115 24.6014C68.7497 24.1001 68.3337 23.6187 67.9203 23.0627C67.0097 21.8334 66.2923 20.6747 65.1203 19.6267C64.3523 18.9414 63.423 18.4254 62.7243 17.6654C61.547 16.3921 60.831 14.6027 60.371 12.9827C59.7443 10.78 60.6857 8.56939 60.259 6.32539C60.2097 6.06538 59.9177 4.51472 60.279 4.41739C60.2817 4.41605 60.6537 5.32805 60.6843 5.40538C60.9363 6.04138 61.335 6.62805 61.8203 7.12405C63.4323 8.76939 65.5657 10.1134 66.783 12.0734C69.1443 15.8694 68.7657 20.296 69.6297 24.4454C70.1803 25.5854 70.7403 26.7227 71.139 27.9254C71.5137 29.0601 71.611 30.1747 71.6697 31.352C71.731 32.5907 71.8043 33.8574 71.7417 35.108C73.8483 31.0947 75.5857 26.9081 76.919 22.552Z" fill="#F2D971"/>
</svg>
