<svg width="333" height="225" viewBox="0 0 333 225" fill="none" xmlns="http://www.w3.org/2000/svg">
<path fill-rule="evenodd" clip-rule="evenodd" d="M-61.2382 10.0338L-61.0872 10.0611L-61.0652 10.0776L-61.0836 10.0586L-61.0872 10.0611L-61.1056 10.0422C-61.152 10.0057 -61.2004 9.99698 -61.2382 10.0338ZM-27.5413 12.5787C-25.8636 12.7512 -24.1802 12.909 -22.4996 13.0477C-20.2283 13.2308 -17.9566 13.3765 -15.6644 13.4604C-13.9661 13.5181 -12.3057 13.7342 -10.6618 14.0252C-7.00662 14.68 -3.44257 15.7206 0.309854 16.0593C3.69803 16.3602 7.27476 15.4196 10.7763 15.3668C11.9267 15.3503 13.0704 15.423 14.2072 15.6379C9.61584 13.7722 4.72017 11.6737 0.0627771 10.2451C-2.501 9.4509 -4.98117 8.86827 -7.29364 8.67149C-9.31702 9.15696 -11.339 9.65204 -13.3811 10.1029C-16.3125 10.7485 -19.496 11.0616 -22.7696 11.1994C-24.3649 11.6625 -25.9564 12.1387 -27.5413 12.5787M29.2745 20.3369L31.2 20.9346C34.6162 21.9828 38.046 22.9898 41.5022 23.9361C42.7947 24.2914 44.0657 24.7146 45.3184 25.1876C50.0831 26.9911 54.5933 29.5002 59.4604 31.0633C64.9294 32.8164 71.453 33.9058 77.51 35.7527C74.674 34.0953 71.8921 32.3105 68.8215 31.1439C66.1727 30.1285 63.4587 29.1636 60.7176 28.2282C56.6179 26.8194 52.4679 25.4825 48.3893 24.2335C46.7557 23.7291 45.1093 23.3129 43.4567 22.9485C38.7541 21.9109 33.9835 21.2696 29.2745 20.3369M-49.5767 13.175C-41.5348 14.2302 -33.1358 15.0848 -30.7685 15.7406C-24.4378 17.4874 -17.7515 17.7922 -11.3095 19.1443C-9.6476 19.4916 -8.00123 19.9079 -6.37439 20.4329C5.0278 24.0979 16.5542 27.4704 28.0317 31.0461C32.9536 32.5818 37.87 34.1477 42.7593 35.7959C45.38 36.6722 47.9624 37.6756 50.5314 38.7359C56.4328 41.1722 62.244 43.9197 68.132 46.1696C70.4485 47.0563 72.6678 48.2062 74.8096 49.5104C79.6079 52.4115 84.0556 56.085 88.6076 59.1256C93.2742 62.2399 97.8469 65.4775 102.23 68.9523C106.637 72.4532 110.855 76.1911 114.789 80.2956C116.795 82.3923 118.576 84.6136 120.233 86.8938C124.019 92.1005 127.171 97.6416 131.183 102.739C143.028 117.914 153.377 133.96 165.566 148.337C173.585 157.789 182.395 166.527 193.04 173.754C198.559 177.503 204.119 180.975 209.764 184.282C212.597 185.936 215.449 187.556 218.332 189.144C210.162 183.556 202.919 177.568 197.424 171.566C192.556 166.238 188.052 160.583 183.745 154.755C173.82 141.35 164.906 127.057 154.648 114.009C150.024 108.105 146.628 101.269 142.375 95.0863C141.354 93.6012 140.279 92.1531 139.12 90.7741C135.47 86.4091 131.028 82.7583 127.083 78.6456C126.048 77.5665 125.047 76.4592 124.098 75.299C123.632 74.7345 123.198 74.1476 122.779 73.5449C121.271 71.3727 120.006 69.0046 118.318 66.9779C115.876 64.0475 112.999 61.5407 109.914 59.2581C102.391 53.7124 93.6447 49.4768 86.4707 44.2124C84.2294 42.5597 81.6183 41.3172 78.843 40.2944C72.166 37.8364 64.5739 36.638 58.3717 34.5745C54.0499 33.1349 50.0136 30.9735 45.8343 29.1916C44.1313 28.4657 42.4042 27.8041 40.6213 27.2977C37.1328 26.305 33.684 25.2478 30.2452 24.1519C25.095 22.5157 19.9793 20.7922 14.8542 19.0857C13.5445 18.6524 12.2058 18.5194 10.8422 18.5254C7.24234 18.5355 3.54806 19.4361 0.0651105 19.09C-3.77496 18.7012 -7.40854 17.6137 -11.1478 16.9063C-12.6495 16.6222 -14.1752 16.4025 -15.7366 16.329C-24.4648 15.9357 -32.9623 14.6047 -41.5455 13.7511C-43.8076 13.6039 -46.0386 13.3876 -48.1383 13.2387C-48.6156 13.2054 -49.0975 13.1806 -49.5767 13.175M34.4657 3.00359C39.3915 4.4308 44.1601 6.12586 49.2584 7.51254C61.2678 10.7822 72.7907 13.7923 83.923 17.3804C91.6428 19.865 99.1884 22.608 106.571 25.861C111.306 27.9492 115.977 30.241 120.593 32.7879C111.017 26.0664 101.665 20.4487 91.8577 15.8714C81.9532 11.2453 71.5819 7.67321 59.9965 5.15077C58.952 4.92446 57.9264 4.85437 56.9033 4.85648C54.1519 4.86412 51.4457 5.33212 48.6764 5.04025C44.6299 4.62032 40.9607 3.31431 37.2629 3.00111C36.3382 2.92432 35.4076 2.91508 34.4657 3.00359M87.8753 40.3654C88.1825 40.5645 88.4827 40.7684 88.777 40.987C95.9946 46.1999 104.792 50.3575 112.344 55.8774C115.73 58.3483 118.865 61.0828 121.545 64.2712C122.013 64.8394 122.458 65.4188 122.886 66.0202C124.421 68.1846 125.695 70.5574 127.372 72.6071C128.249 73.6795 129.172 74.704 130.128 75.7003C134.127 79.8915 138.63 83.6217 142.341 88.0664C143.582 89.557 144.737 91.1132 145.831 92.7174C150.016 98.8415 153.322 105.63 157.874 111.483C168.076 124.627 176.936 139 186.796 152.504C190.994 158.249 195.366 163.836 200.116 169.093C209.135 179.082 223.062 189.02 237.981 197.169C252.914 205.324 268.84 211.685 281.892 214.463C282.886 214.671 283.869 214.914 284.852 215.167C283.002 214.496 281.241 213.831 279.606 213.195C277.91 212.533 276.302 211.662 274.738 210.681C271.364 208.567 268.236 205.928 264.843 203.992C258.86 200.565 252.674 197.126 246.702 193.432C242.658 190.933 238.715 188.305 234.99 185.504C231.706 183.026 228.601 180.223 225.629 177.222C218.938 170.47 212.87 162.776 206.393 156.182C203.505 153.202 200.088 150.451 197.056 147.454C195.678 146.085 194.372 144.677 193.224 143.169C191.915 141.46 190.735 139.647 189.629 137.766C185.441 130.649 182.377 122.582 177.383 116.047C175.474 113.55 173.337 111.264 171.068 109.107C165.652 103.949 159.557 99.4474 154.286 94.2153C152.557 92.518 151.049 90.5892 149.638 88.5657C146.505 84.0791 143.867 79.0799 140.342 75.0245C137.566 71.8498 134.36 68.9902 130.952 66.3186C122.924 60.0237 113.745 54.746 105.994 48.7879C103.524 46.8816 100.673 45.3774 97.6919 44.0743C94.4759 42.6756 91.1163 41.5036 87.8753 40.3654M1.48701 6.84452C9.08126 9.12544 17.2684 13.0885 23.7222 14.9137C30.4534 16.8265 37.4467 17.3832 44.2795 18.8341C46.0515 19.2107 47.8187 19.6488 49.5635 20.1764C53.006 21.2169 56.5084 22.3056 59.975 23.4721C63.4647 24.6489 66.9283 25.9021 70.2846 27.2139C71.4045 27.6628 72.4882 28.1738 73.5476 28.7334C77.4569 30.8032 81.0368 33.5619 85.1263 35.1841C89.5569 36.9552 94.5041 38.6109 99.1369 40.7492C102.352 42.2382 105.427 43.9574 108.081 46.0903C115.706 52.2097 124.763 57.6835 132.667 64.1277C136.159 66.9735 139.432 70.0041 142.265 73.3607C145.802 77.5244 148.412 82.6433 151.579 87.2172C152.896 89.1207 154.313 90.9176 155.935 92.5144C161.258 97.6686 167.385 102.095 172.875 107.154C175.282 109.374 177.575 111.716 179.626 114.288C180.965 115.965 182.182 117.748 183.316 119.593C187.684 126.648 190.9 134.646 195.98 141.016C197.051 142.361 198.271 143.623 199.558 144.844C202.67 147.796 206.163 150.498 209.132 153.427C215.682 159.945 221.884 167.519 228.594 174.237C231.434 177.086 234.363 179.79 237.471 182.157C241.078 184.918 244.9 187.493 248.814 189.972C254.711 193.702 260.811 197.2 266.72 200.673C270.132 202.681 273.28 205.38 276.667 207.565C278.025 208.44 279.42 209.232 280.899 209.833C283.766 211.004 287.041 212.266 290.488 213.504C280.541 206.322 271.553 197.147 264.77 190.796C262.774 188.926 260.709 187.14 258.596 185.413C249.993 178.35 240.691 172.189 232.349 164.802C229.712 162.451 227.204 159.905 224.777 157.27C221.224 153.409 217.833 149.356 214.316 145.548C211.594 142.58 208.983 139.497 206.459 136.343C196.521 123.915 187.784 110.371 177.189 98.5631C175.498 96.6761 173.754 94.8419 171.972 93.0445C164.775 85.7708 157.04 79.0297 150.11 71.4861C148.031 69.2547 146.303 66.6218 144.38 64.2189C143.584 63.2329 142.759 62.2885 141.852 61.4382C139.904 59.6078 137.834 57.9735 135.697 56.4392C132.422 54.0975 129.003 51.9885 125.623 49.7523C118.272 44.8959 107.016 38.7872 95.4848 33.287C83.9853 27.8018 72.2188 22.9356 63.7961 20.5798C56.7752 18.5616 49.4557 18.1891 42.3576 16.6528C40.5033 16.2488 38.663 15.7663 36.8433 15.169C30.2353 12.9698 24.5996 9.90475 18.446 7.98729C14.694 6.81289 10.7365 6.08785 6.18575 6.34078C4.59866 6.428 3.03261 6.60634 1.48701 6.84452M325.378 220.244C325.337 220.23 325.226 220.201 325.17 220.188C325.242 220.201 325.311 220.216 325.378 220.244L325.392 220.25L325.39 220.246L325.378 220.244ZM19.9414 4.22532C25.9941 6.09647 31.5711 9.05421 38.0942 11.1539C39.7757 11.7043 41.4814 12.1376 43.1943 12.5128C50.3809 14.0776 57.7758 14.5511 64.8797 16.6279C73.4197 19.1984 85.3367 24.3724 96.9525 30.1998C108.515 35.9957 119.777 42.4174 127.115 47.4836C130.478 49.8008 133.889 51.9895 137.148 54.4001C139.356 56.0282 141.491 57.7492 143.495 59.6833C144.478 60.6189 145.368 61.65 146.229 62.7287C148.108 65.0927 149.8 67.672 151.842 69.8596C158.85 77.2801 166.64 83.9094 173.944 91.0403C175.783 92.845 177.601 94.6706 179.366 96.5586C190.235 108.183 199.309 121.565 209.497 133.852C212.022 136.894 214.603 139.871 217.313 142.732C221.44 147.136 225.432 151.85 229.648 156.261C231.424 158.126 233.236 159.945 235.133 161.641C242.32 168.133 250.261 173.68 257.805 179.728C261.095 182.366 264.305 185.102 267.36 188.04C275.829 196.202 287.83 209.069 300.898 216.378C301.705 216.833 302.524 217.268 303.344 217.672C307.498 218.863 311.525 219.825 315.047 220.372C317.209 220.71 319.092 220.994 320.83 220.95C322.021 220.916 323.145 220.732 324.249 220.261C324.59 220.114 325.336 220.236 325.39 220.246C325.662 220.348 325.885 220.526 326.055 220.747C326.263 220.682 326.478 220.612 326.687 220.54C326.63 220.374 326.607 220.189 326.621 219.973C326.347 219.867 326.075 219.765 325.811 219.674C324.569 219.262 323.339 218.8 322.117 218.31C320.322 217.596 318.545 216.832 316.769 216.114C314.454 215.184 312.19 214.023 309.952 212.733C304.954 209.849 300.129 206.316 295.39 203.394C289.411 199.721 284.009 195.442 278.93 190.806C267.249 180.148 257.297 167.623 245.703 156.62C241.672 152.71 237.839 148.667 234.131 144.523C225.532 134.896 217.572 124.79 208.974 115.042C204.492 109.959 199.77 105.123 194.909 100.452C189.204 94.9601 183.335 89.6512 177.439 84.3716C171.518 79.072 165.559 73.8153 159.847 68.2915C155.133 63.7715 150.665 58.8376 145.816 54.3803C143.771 52.5011 141.663 50.7134 139.438 49.076C128.152 40.7665 116.707 34.683 104.98 29.6837C97.6743 26.5786 90.2622 23.8909 82.6785 21.4123C71.6167 17.7964 60.2078 14.5855 48.2933 11.1864C42.9818 9.66761 38.0427 7.81075 32.9004 6.26954C30.7681 5.62507 28.6043 5.03414 26.3595 4.5471C24.73 4.19316 22.521 4.11489 19.9414 4.22532M130.111 38.4699C133.895 40.907 137.652 43.548 141.395 46.4266C143.679 48.1869 145.836 50.099 147.923 52.1075C152.69 56.6963 157.062 61.744 161.693 66.3799C167.305 71.9573 173.105 77.335 178.993 82.6099C184.907 87.9084 190.887 93.119 196.711 98.5227C201.705 103.165 206.61 107.922 211.26 112.967C220.068 122.506 228.28 132.39 237.046 141.847C240.754 145.854 244.559 149.795 248.575 153.578C260.071 164.66 269.953 177.207 281.501 187.984C286.359 192.514 291.502 196.741 297.228 200.383C301.902 203.365 306.639 206.96 311.568 209.913C313.645 211.161 315.758 212.295 317.918 213.2C319.687 213.944 321.446 214.737 323.224 215.479C323.517 215.604 323.811 215.722 324.107 215.845C322.706 214.718 321.167 213.757 320.259 213.05C316.307 209.999 312.068 207.302 308.074 204.282C306.314 202.95 304.599 201.561 302.979 200.058C301.183 198.392 299.552 196.59 298.012 194.709C294.555 190.485 291.55 185.878 287.941 181.791C281.097 173.992 271.568 168.645 263.991 161.53C261.978 159.644 260.108 157.628 258.434 155.439C251.962 146.799 247.518 136.905 241.653 127.838C240.235 125.645 238.735 123.494 237.094 121.435C234.837 118.603 232.31 116.144 229.639 113.88C223.125 108.358 215.815 103.939 209.544 98.0585C204.198 93.1372 198.734 88.2446 193.105 83.5466C187.485 78.8628 181.695 74.382 175.851 70.0817C173.244 68.1696 170.342 66.6218 167.636 64.8319C166.398 64.0155 165.212 63.1524 164.093 62.1953C161.479 59.9606 159.345 57.1762 156.948 54.6689C156.004 53.6749 155.015 52.7383 153.933 51.9094C151.974 50.4043 149.902 49.0566 147.777 47.7834C142.101 44.3868 135.981 41.5836 130.111 38.4699M-61.1388 13.7879C-63.011 13.3963 -64.5415 12.9948 -65.5537 12.5716C-66.4687 12.1972 -67.041 11.7381 -67.3125 11.3398C-67.5581 10.971 -67.5715 10.5943 -67.446 10.2428C-67.3801 10.0489 -67.2165 9.67616 -66.6817 9.51091C-66.6376 9.49082 -66.5323 9.45997 -66.3627 9.45321C-66.3218 9.45125 -66.234 9.44843 -66.1135 9.45463C-65.5935 9.45824 -64.2969 9.53053 -64.1953 9.55514L-62.5073 9.82612C-62.1966 9.71078 -61.8443 9.6934 -61.5024 9.82073C-61.3593 9.87467 -61.2254 9.94565 -61.1056 10.0422L-61.0946 10.0504L-61.0836 10.0586L-60.5716 10.1419L-60.4324 10.1826C-60.2919 10.1644 -60.149 10.1497 -60.0082 10.1471C-55.3968 9.9737 -44.2611 8.00193 -39.9479 7.90874C-35.0932 7.80431 -29.5961 7.99384 -24.2697 7.76265C-23.7297 7.74181 -23.1825 7.71603 -22.6464 7.68201C-21.1687 7.23194 -19.6823 6.80218 -18.1804 6.42512C-15.4077 5.72586 -12.5798 5.20502 -9.66488 5.0679C-9.1899 5.04464 -8.71213 5.04059 -8.22198 5.05439C-6.27572 4.56432 -4.34014 4.08171 -2.38878 3.66742C0.330888 3.08957 3.07609 2.64729 5.89841 2.45289C6.58355 2.40526 7.25831 2.38071 7.92378 2.37319L9.29128 2.13712C16.5045 0.965393 23.2214 0.386907 27.017 1.14506C27.7723 1.29724 28.5194 1.46042 29.2618 1.6321C32.0695 0.268677 34.7585 -0.0340473 37.4329 0.14398C41.1533 0.383304 44.8547 1.61406 48.9238 1.96012C51.586 2.18895 54.1778 1.66281 56.8199 1.60421C58.0759 1.5725 59.3411 1.64539 60.6233 1.90221C72.5259 4.27306 83.2199 7.73207 93.426 12.3284C103.63 16.9213 113.343 22.6635 123.338 29.5326C130.458 34.5595 138.733 38.1175 146.393 42.5154C149.808 44.4739 153.093 46.6023 156.132 49.0544C157.342 50.0278 158.448 51.126 159.489 52.2748C161.749 54.7606 163.735 57.5212 166.207 59.7489C167.203 60.6432 168.261 61.4521 169.365 62.2192C172.069 64.1055 174.97 65.7496 177.566 67.7535C182.2 71.3236 186.759 75.0577 191.29 78.8368C198.07 84.4914 204.761 90.2921 211.213 96.2116C217.589 101.924 224.964 106.155 231.573 111.495C234.462 113.829 237.206 116.365 239.67 119.312C241.442 121.423 243.078 123.618 244.609 125.875C250.621 134.728 255.175 144.461 261.757 152.887C263.287 154.891 265.019 156.723 266.852 158.458C274.487 165.692 284 171.283 290.842 179.247C294.425 183.432 297.396 188.12 300.814 192.44C302.224 194.211 303.702 195.928 305.352 197.505C306.862 198.957 308.463 200.304 310.103 201.592C314.049 204.689 318.245 207.474 322.148 210.6C323.561 211.729 326.391 213.523 328.076 215.515C328.723 216.271 329.209 217.07 329.481 217.88L330.673 218.326C330.436 218.274 329.704 218.497 329.704 218.497C329.704 218.497 332.541 218.954 332.083 220.128C331.877 220.668 331.389 221.007 330.847 221.04C330.571 221.137 330.277 221.214 330.123 221.183C329.973 221.15 329.817 221.116 329.66 221.072C329.756 221.454 329.68 221.845 329.472 222.154C329.673 222.945 329.134 224.033 329.038 224.084C328.996 224.108 328.755 224.239 328.322 224.254C327.979 224.27 326.751 224.266 326.257 224.292L322.289 224.579C320.475 224.697 318.535 224.77 316.601 224.744C314.63 224.728 312.659 224.606 310.833 224.341C304.404 223.418 297.911 222.472 291.496 221.265C287.177 220.452 282.888 219.524 278.669 218.399C274.349 217.244 270.075 215.888 265.828 214.427C259.517 212.26 253.263 209.878 246.996 207.638C245.065 206.949 242.957 206.552 240.967 205.93C239.998 205.63 239.063 205.28 238.175 204.845C237.244 204.386 236.339 203.883 235.443 203.353C232.061 201.366 228.878 198.966 225.408 197.163C219.454 194.065 213.627 190.916 207.887 187.601C202.144 184.282 196.492 180.8 190.877 177.034C179.872 169.645 170.721 160.73 162.441 151.015C150.169 136.633 139.814 120.517 127.928 105.291C123.916 100.125 120.773 94.5197 116.989 89.2479C115.452 87.0956 113.807 85.0019 111.942 83.0242C108.175 79.0153 104.125 75.3513 99.8915 71.9255C95.6237 68.4654 91.1704 65.24 86.6208 62.1344C82.7629 59.5 78.9825 56.3994 75.0021 53.7179C72.4368 51.9941 69.7847 50.4416 66.9581 49.3223C61.0638 47.0027 55.25 44.183 49.3485 41.678C46.8552 40.6127 44.3475 39.6103 41.8024 38.7291C36.9521 37.0379 32.0781 35.4267 27.189 33.8471C15.7382 30.1577 4.23594 26.6679 -7.1396 22.8892C-8.66981 22.3817 -10.2281 21.9782 -11.7996 21.6317C-18.2849 20.2249 -25.0155 19.8716 -31.3809 18.0749C-34.6027 17.1772 -49.186 15.8965 -58.5414 14.2732L-58.6588 14.3019C-58.9929 14.3912 -59.7346 14.441 -60.1843 14.341C-60.628 14.242 -60.949 14.0156 -61.1388 13.7879" fill="#E8DDCD"/>
</svg>
