<svg width="38" height="55" viewBox="0 0 38 55" fill="none" xmlns="http://www.w3.org/2000/svg">
<path fill-rule="evenodd" clip-rule="evenodd" d="M36.2809 53.7214L35.9408 53.5222C35.572 53.3777 35.2441 53.0337 34.8544 52.9227C33.8586 52.6365 31.2737 51.1563 30.5236 50.4349C28.6111 48.5958 28.6377 48.6084 27.1432 46.3408C26.8166 45.8467 25.9558 44.2731 25.865 43.5944C25.7626 42.8276 25.4584 41.7563 25.3174 40.998C25.2102 40.4099 24.8446 39.64 24.8032 39.0392C24.782 38.7074 24.1926 37.5849 24.0746 37.2998C24.8348 38.0632 26.3662 39.4137 27.114 40.1797C28.1468 41.2368 29.1266 42.715 30.1605 43.7727C31.0715 44.7054 31.9551 45.9549 32.6508 47.1052C33.6634 48.776 34.7824 50.4547 35.4634 52.3656C35.6044 52.7657 36.1088 53.3439 36.2809 53.7214ZM24.4443 37.3224C24.2317 37.0394 23.9974 36.7768 23.7732 36.5293L24.6088 36.826C25.4208 36.9747 26.0077 37.5762 26.7721 37.7884C28.0907 38.1552 29.524 38.5074 30.7506 39.1117C33.2517 40.3451 35.5203 43.3386 36.2979 46.3211C36.7207 47.9378 36.8741 49.6571 37.1192 51.3319C37.2268 52.0693 37.3682 52.8419 37.5594 53.5491C37.616 53.7618 37.8716 54.0706 37.866 54.2902C37.8629 54.3487 37.5968 54.2762 37.5931 54.2749C37.2204 54.1488 36.7483 53.9876 36.6084 53.6077C36.2485 52.6337 35.6395 51.6759 35.4377 51.333C34.4612 49.657 33.7786 47.7541 32.7237 46.1288C32.0205 45.0453 31.162 44.348 30.3379 43.4189C29.0404 41.9543 27.868 40.297 26.4541 38.9672C25.8178 38.3688 25.1142 37.8721 24.4443 37.3224ZM32.4489 34.1047L32.1101 33.9059C31.7413 33.7614 31.4134 33.4174 31.0225 33.306C30.0274 33.0216 27.4405 31.5391 26.6912 30.8195C24.7791 28.9791 24.807 28.9922 23.3108 26.7254C22.9847 26.23 22.1239 24.6564 22.0343 23.9782C21.9306 23.211 21.6277 22.1401 21.4866 21.3818C21.3777 20.7945 21.0134 20.025 20.9712 19.4225C20.95 19.0907 20.3602 17.9694 20.2439 17.6836C21.0028 18.4465 22.5337 19.7982 23.2816 20.5642C24.3148 21.6202 25.2958 23.0988 26.3281 24.1573C27.2403 25.0904 28.1244 26.3386 28.8201 27.489C29.8309 29.1605 30.9504 30.838 31.6314 32.7489C31.7736 33.1495 32.2768 33.7273 32.4489 34.1047ZM20.6131 17.7074C20.3998 17.4227 20.1667 17.1606 19.9408 16.9138L20.7769 17.2093C21.5884 17.3593 22.1765 17.9612 22.9397 18.173C24.2599 18.539 25.692 18.8907 26.9195 19.4968C29.4198 20.7284 31.6878 23.7232 32.4667 26.7061C32.887 28.322 33.0434 30.0408 33.2885 31.7157C33.3948 32.4526 33.5358 33.2265 33.727 33.9336C33.7853 34.1456 34.0392 34.4552 34.0335 34.6748C34.0309 34.7321 33.7644 34.6608 33.7619 34.6599C33.3896 34.5326 32.9163 34.3709 32.776 33.9923C32.416 33.0183 31.8075 32.0593 31.607 31.7167C30.6287 30.0416 29.9479 28.1379 28.8925 26.5139C28.1893 25.4303 27.33 24.7313 26.5059 23.8022C25.2067 22.3384 24.036 20.6804 22.6221 19.3505C21.9853 18.7533 21.2817 18.2566 20.6131 17.7074ZM14.8076 40.9544L14.4675 40.7551C14.0988 40.6106 13.7708 40.2666 13.3804 40.1539C12.3853 39.8695 9.79923 38.3888 9.04912 37.6674C7.13909 35.8292 7.16444 35.8414 5.66869 33.5733C5.3426 33.0779 4.48305 31.5048 4.39175 30.8273C4.29059 30.061 3.98517 28.9892 3.84582 28.2301C3.73691 27.6429 3.37137 26.8729 3.33042 26.2709C3.30877 25.9403 2.71936 24.8178 2.60307 24.5319C3.36153 25.2961 4.89292 26.6466 5.64078 27.4126C6.6735 28.4698 7.65455 29.9484 8.68727 31.0056C9.5982 31.9383 10.4831 33.1883 11.1788 34.3386C12.1901 36.0089 13.3096 37.6864 13.9889 39.5981C14.1328 39.9979 14.6356 40.5769 14.8076 40.9544ZM2.97103 24.5553C2.75893 24.2711 2.52417 24.0097 2.29995 23.7622L3.13603 24.0577C3.94758 24.2077 4.53441 24.8091 5.29886 25.0214C6.6174 25.3881 8.05071 25.7403 9.27864 26.3451C11.7802 27.5772 14.047 30.5716 14.8246 33.554C15.2475 35.1708 15.4009 36.89 15.646 38.5648C15.7535 39.3022 15.895 40.0749 16.0874 40.7825C16.1427 40.9947 16.3984 41.3035 16.3927 41.5231C16.3913 41.5809 16.1236 41.5092 16.1236 41.5092C15.7488 41.381 15.2763 41.221 15.1352 40.8407C14.7752 39.8667 14.1663 38.9089 13.9649 38.5646C12.9879 36.89 12.3066 34.9875 11.2505 33.3618C10.5472 32.2783 9.68922 31.5797 8.86508 30.6505C7.56591 29.1868 6.39472 27.53 4.9808 26.2001C4.34451 25.6017 3.64091 25.105 2.97103 24.5553ZM12.626 17.2353L12.2859 17.036C11.9171 16.8915 11.588 16.5471 11.1983 16.4361C10.2025 16.1499 7.61635 14.6692 6.86749 13.9484C4.95621 12.1097 4.98281 12.1223 3.48706 9.85421C3.16097 9.35882 2.30096 7.78694 2.21012 7.10828C2.1077 6.34152 1.80354 5.27016 1.66247 4.51188C1.55403 3.92336 1.18973 3.15383 1.14879 2.55183C1.12588 2.22081 0.536474 1.09828 0.419726 0.813653C1.1799 1.57708 2.71004 2.92708 3.45915 3.69354C4.49061 4.75026 5.47168 6.22892 6.50439 7.2861C7.41657 8.21926 8.30023 9.46875 8.99591 10.6191C10.0085 12.2898 11.1267 13.9669 11.8073 15.879C11.9499 16.2784 12.4539 16.8578 12.626 17.2353ZM0.788937 0.837512C0.575589 0.552798 0.342546 0.290665 0.117073 0.0426912L0.953939 0.339867C1.7647 0.488152 2.35278 1.09008 3.11598 1.30183C4.43577 1.66905 5.86908 2.02129 7.0953 2.62686C9.59686 3.85895 11.8637 6.85329 12.6417 9.83451C13.0646 11.4513 13.2192 13.1709 13.4631 14.8453C13.5706 15.5827 13.7121 16.3554 13.9045 17.0629C13.9611 17.2757 14.2167 17.5845 14.2098 17.8036C14.2084 17.8614 13.9407 17.7897 13.9407 17.7897C13.5655 17.6627 13.0934 17.5014 12.9535 17.1216C12.5936 16.1476 11.9834 15.1894 11.7828 14.8468C10.8063 13.1709 10.1237 11.268 9.06884 9.64271C8.36557 8.5592 7.50759 7.86061 6.6822 6.93102C5.38303 5.46723 4.21184 3.81046 2.79917 2.48104C2.16163 1.8822 1.45803 1.38546 0.788937 0.837512Z" fill="#EBC117"/>
</svg>
