<svg width="175" height="181" viewBox="0 0 175 181" fill="none" xmlns="http://www.w3.org/2000/svg">
<path opacity="0.1" fill-rule="evenodd" clip-rule="evenodd" d="M-74.2439 169.72C-80.6691 196.104 -70.0317 244.252 -32.8926 257.925C-13.2776 265.146 2.53594 255.102 21.4008 257.853C32.7204 259.503 42.9607 265.71 54.3244 267.771C108.866 277.668 140.859 253.947 160.776 209.783C166.302 197.532 178.507 176.928 174.034 162.946C167.802 143.465 107.165 106.74 92.9638 82.4021C83.8776 66.8297 82.2552 3.6882 68.9839 0.808319C53.6761 -2.51556 38.5143 4.99915 26.5362 12.6429C-36.0458 52.5893 -13.7629 76.3094 -40.818 122.808C-50.3183 139.139 -69.845 151.654 -74.2439 169.72Z" fill="#F27A62"/>
</svg>
