<svg width="50" height="79" viewBox="0 0 50 79" fill="none" xmlns="http://www.w3.org/2000/svg">
<path fill-rule="evenodd" clip-rule="evenodd" d="M1.81525 0.0194473L1.83562 0.0157547C2.72623 -0.108009 3.55203 0.510803 3.67979 1.3993C3.80384 2.28964 3.18357 3.11348 2.29296 3.23909C1.96893 3.28527 1.32458 3.25941 1.02462 3.12272C0.208076 2.74774 -0.151131 1.78166 0.222889 0.96521C0.513588 0.333473 1.15979 -0.0230408 1.81525 0.0194473ZM19.8256 0.224487C19.8126 0.217094 19.8015 0.211555 19.7885 0.206017C18.9886 -0.20591 18.0036 0.108109 17.5926 0.904251C17.1778 1.70408 17.4926 2.68494 18.2925 3.0987C18.3036 3.10424 18.3165 3.10979 18.3295 3.11718C19.1294 3.52725 20.1144 3.21323 20.5255 2.41709C20.9384 1.61726 20.6236 0.636406 19.8256 0.224487ZM-7.01493 6.92422C-7.02604 6.91868 -7.039 6.91499 -7.05011 6.91129C-7.06307 6.90759 -7.07604 6.90391 -7.08715 6.90021L-7.01493 6.92422ZM29.0409 7.30474C29.0446 7.31028 29.0483 7.31397 29.0501 7.31767C29.5908 8.03807 30.6147 8.18401 31.3331 7.64647C32.0552 7.10894 32.2015 6.08745 31.6609 5.36889C31.659 5.3652 31.6553 5.3615 31.6516 5.35596C31.1128 4.63741 30.0907 4.49149 29.3705 5.02901C28.6483 5.56654 28.5021 6.58804 29.0409 7.30474ZM6.01463 5.83624C6.78859 5.55546 7.66809 5.89719 8.03656 6.65269C8.4328 7.45805 8.09951 8.43337 7.28852 8.82867C7.18298 8.87854 7.07373 8.91548 6.96079 8.95058C6.10165 9.21842 5.18697 8.74369 4.91665 7.8866C4.64631 7.02951 5.12402 6.11515 5.98315 5.84547L6.01463 5.83624ZM-6.08914 7.77393C-5.9262 8.12674 -5.88732 8.53681 -6.01323 8.93581C-6.27801 9.79289 -7.19268 10.275 -8.05367 10.0072C-9.05908 9.69685 -9.38496 8.9432 -9.42199 8.4149C-9.44976 8.04177 -9.41273 7.45251 -8.73135 6.87989C-8.04441 6.30172 -7.01493 6.38853 -6.43354 7.07384C-6.25764 7.28442 -6.14284 7.52271 -6.08914 7.77393ZM17.4111 8.04546C18.2017 8.12674 18.835 8.77509 18.872 9.59155C18.9127 10.4874 18.2147 11.2485 17.3167 11.2891C16.9389 11.3057 16.9723 11.3039 16.5872 11.1931C15.7243 10.9381 15.2281 10.033 15.4818 9.17225C15.728 8.34286 16.5779 7.85336 17.4111 8.04546ZM-16.7431 8.85822C-16.7505 8.85638 -16.7579 8.85268 -16.7654 8.85084C-17.6115 8.54605 -18.5466 8.98568 -18.8521 9.82984C-19.1594 10.674 -18.7206 11.6068 -17.8744 11.9098C-17.867 11.9135 -17.8596 11.9153 -17.8522 11.919C-17.0061 12.2238 -16.071 11.786 -15.7636 10.9418C-15.4581 10.0977 -15.897 9.16301 -16.7431 8.85822ZM3.65757 13.3561C3.53537 13.1455 3.39465 13.0014 3.25578 12.9017C3.3354 12.9627 3.41131 13.0329 3.47797 13.1104C3.54648 13.1862 3.60573 13.2674 3.65757 13.3561L3.66312 13.3654C3.66127 13.3635 3.65942 13.3598 3.65757 13.3561ZM27.1023 12.4528C27.0486 12.3549 27.0264 12.2478 26.9801 12.1462C26.606 11.3298 25.6377 10.9696 24.8193 11.3427C23.999 11.714 23.638 12.68 24.012 13.4984C24.0898 13.6701 24.1471 13.8438 24.2379 14.0119C24.6693 14.8006 25.6617 15.0925 26.4524 14.6621C27.2411 14.2317 27.5337 13.2416 27.1023 12.4528ZM1.00241 13.1418C1.01722 13.1141 1.03388 13.0901 1.04684 13.0735C1.59121 12.3586 2.61699 12.2182 3.33169 12.7613C4.05011 13.3044 4.18898 14.3259 3.64461 15.0426C3.70572 14.9632 3.81866 14.7452 3.81866 14.7452C3.81866 14.7452 3.09099 15.6189 2.88361 15.7039C2.47812 15.8683 2.06891 15.872 1.65046 15.702C1.41531 15.606 1.09684 15.436 0.84502 15.002C0.489517 14.3942 0.574692 13.6517 1.00241 13.1418ZM-7.45561 17.0449L-7.48338 17.0745C-7.47598 17.0671 -7.45561 17.0449 -7.45561 17.0449ZM13.2339 17.5271C13.2432 17.5344 13.2525 17.5455 13.2617 17.5548C13.8542 18.229 14.8874 18.2955 15.5614 17.7007C16.2372 17.1077 16.302 16.0789 15.7076 15.4046C15.7002 15.3936 15.691 15.3843 15.6817 15.3751C15.0874 14.7009 14.0542 14.6362 13.3802 15.2292C12.7044 15.824 12.6396 16.851 13.2339 17.5271ZM36.1491 16.2045C36.1398 16.2285 36.1287 16.2543 36.1195 16.2802C35.7991 17.1188 36.2176 18.0609 37.0564 18.3823C37.897 18.7037 38.8431 18.2863 39.1653 17.4476C39.1746 17.4218 39.1857 17.3959 39.1931 17.3719C39.5171 16.5314 39.0987 15.5912 38.258 15.268C37.4174 14.9465 36.4731 15.3659 36.1491 16.2045ZM-7.45561 17.0449C-6.85385 16.404 -5.84474 16.3559 -5.18187 16.9415C-4.60233 17.4569 -4.47827 18.2936 -4.83748 18.942C-4.97079 19.2246 -5.18557 19.4721 -5.47627 19.6458C-6.24653 20.1076 -7.25008 19.8582 -7.71298 19.0879C-8.08144 18.4728 -7.47598 17.0893 -7.45561 17.0449ZM-20.6037 19.1415C-20.6111 19.147 -20.6203 19.1544 -20.6296 19.1618C-21.3165 19.7418 -21.4036 20.7689 -20.824 21.4542C-20.2408 22.1413 -19.2113 22.2263 -18.5225 21.6481C-18.5151 21.6407 -18.5077 21.6315 -18.4984 21.6241C-17.8115 21.0459 -17.7245 20.0189 -18.304 19.3318C-18.8873 18.6465 -19.9149 18.5596 -20.6037 19.1415ZM47.6307 20.2553C47.6215 20.2535 47.6104 20.2517 47.603 20.2498C46.7179 20.078 45.8606 20.6543 45.6884 21.5354C45.5181 22.4184 46.0958 23.2736 46.979 23.4454C46.9882 23.4473 46.9975 23.4491 47.0086 23.451C47.8937 23.6209 48.7509 23.0464 48.9213 22.1635C49.0916 21.2824 48.5158 20.4271 47.6307 20.2553ZM27.9447 22.4406C27.9503 22.4202 27.9558 22.3981 27.9633 22.3778C28.2262 21.5207 27.7411 20.6082 26.8801 20.3477C26.0191 20.0836 25.1063 20.5694 24.8452 21.4283C24.8378 21.4486 24.8322 21.4689 24.8248 21.4893C24.5619 22.3482 25.047 23.2589 25.908 23.5212C26.7708 23.7835 27.6818 23.2995 27.9447 22.4406ZM7.01448 24.9324C6.94783 24.9712 6.88487 25.0008 6.82562 25.0285C6.33681 25.2409 5.84799 25.2298 5.39621 25.0414C5.06477 24.9047 4.73704 24.6535 4.50004 24.2785C4.17601 23.7631 4.02418 22.943 4.36302 22.182C4.70927 21.3988 5.25363 21.0958 5.73134 20.9721C6.06092 20.8852 6.40902 20.8945 6.7423 20.9868C7.45701 21.0496 8.05507 21.5761 8.19764 22.2872C8.42724 22.8691 8.39391 23.5175 8.10321 24.0328C7.90324 24.382 7.58107 24.7403 7.01448 24.9324ZM37.26 28.0874C37.186 28.0449 37.0971 28.0006 36.986 27.96C37.1119 28.008 37.2304 28.0708 37.336 28.1447C37.373 28.1705 37.4119 28.2019 37.447 28.2333C37.4989 28.2832 37.5489 28.3312 37.5489 28.3312C37.5489 28.3312 37.5341 28.3072 37.497 28.2703C37.447 28.2259 37.3933 28.1816 37.336 28.1447L37.26 28.0874ZM16.6853 23.9608C17.1982 23.7946 17.7648 23.7779 18.311 23.9682C19.8626 24.5039 20.2866 26.0721 19.6386 27.5388C19.0738 28.8152 17.7018 29.6409 16.5223 29.3767C15.2799 29.096 14.6985 28.4051 14.4264 27.7327C14.1338 27.016 14.2023 26.1959 14.5393 25.505C14.9892 24.5796 15.8947 24.0328 16.6853 23.9608ZM46.7735 29.8607C46.7049 29.8219 46.6272 29.7905 46.542 29.7665C46.4568 29.7425 46.3661 29.7259 46.2587 29.7129C46.4439 29.7351 46.6161 29.785 46.7735 29.8607ZM-26.301 26.6928C-26.3862 26.7039 -26.3436 26.6983 -26.4343 26.7076C-27.3305 26.7833 -27.997 27.572 -27.9193 28.4661C-27.8434 29.362 -27.0527 30.0251 -26.1547 29.9494C-25.9714 29.9327 -26.0621 29.9438 -25.8825 29.9198C-24.9901 29.8053 -24.3605 28.9907 -24.4735 28.0985C-24.5883 27.2081 -25.4067 26.5783 -26.301 26.6928ZM46.8957 29.9401C46.9568 29.9955 47.0123 30.0528 47.0641 30.1156C47.1178 30.1766 47.166 30.2449 47.2123 30.317C47.1123 30.1544 47.0123 30.0325 46.8957 29.9401ZM35.2048 30.5977C34.5826 29.99 34.5512 28.9907 35.1418 28.3423C35.6936 27.7383 36.599 27.6441 37.26 28.0874C37.3822 28.1576 37.4563 28.2259 37.497 28.2703C37.9859 28.7044 38.1821 29.41 37.9396 30.0583C37.6211 30.897 36.6786 31.3218 35.8362 31.006C35.3622 30.8286 35.2196 30.6199 35.2048 30.5977ZM-10.1237 27.7549C-9.87748 27.7992 -9.63307 27.9064 -9.38681 28.0819C-8.48324 28.7302 -8.15736 29.8847 -8.42769 30.8933C-8.71839 31.9739 -9.61455 32.8162 -10.8977 32.7829C-11.8309 32.7608 -12.4752 32.4449 -12.9233 32.0496C-13.6547 31.4049 -13.9361 30.461 -13.8547 29.5615C-13.7491 28.4088 -12.9807 27.4834 -12.3716 27.2192C-11.6865 26.92 -10.9662 26.9625 -10.3052 27.561C-10.2385 27.6219 -10.1774 27.6866 -10.1237 27.7549ZM46.8345 29.8921C47.4122 30.195 47.7715 30.8305 47.6937 31.5158C47.5919 32.4061 46.7809 33.0489 45.8884 32.9455C45.1533 32.8624 44.7867 32.6038 44.4257 32.009C43.9572 31.2424 44.2016 30.2412 44.97 29.7739C45.5718 29.4081 46.3143 29.4783 46.8345 29.8921ZM-1.49537 28.9371C-1.14543 28.7487 -0.712158 28.6471 -0.19001 28.697C0.663567 28.7819 1.22089 29.3047 1.43568 29.9641C1.79673 30.607 1.91894 31.4604 1.27274 32.3987C0.602467 33.374 -0.756596 34.0944 -1.98975 33.4793C-2.54522 33.2041 -3.06366 32.5225 -3.1655 31.8021C-3.25808 31.15 -3.1044 30.522 -2.64891 30.075C-2.46931 29.6464 -2.18231 29.3435 -1.86754 29.1311C-1.75089 29.0516 -1.62499 28.987 -1.49537 28.9371ZM-31.2169 31.4659H-31.3688C-32.2686 31.4659 -33 32.1955 -33 33.0933C-33 33.991 -32.2686 34.7206 -31.3688 34.7206H-31.2169C-30.3171 34.7206 -29.5857 33.991 -29.5857 33.0933C-29.5857 32.1955 -30.3171 31.4659 -31.2169 31.4659ZM12.1897 34.8278C12.1693 34.9072 12.1545 34.9829 12.1471 35.0531C12.1397 35.1233 12.1378 35.188 12.1397 35.2471C12.1378 35.1067 12.1526 34.9663 12.1897 34.8278ZM-18.4021 36.5623C-18.3984 36.5457 -18.3966 36.5364 -18.3966 36.5364C-18.3947 36.5198 -18.3947 36.5161 -18.3947 36.5161L-18.4021 36.5623ZM15.1392 36.1042C15.0781 36.2538 14.9985 36.385 14.9115 36.4958C14.6985 36.771 14.4208 36.965 14.0672 37.0647C13.7894 37.146 13.3376 37.2347 12.7507 36.8911C11.6916 36.2649 11.5286 35.4041 11.6008 34.3327C11.6601 33.4369 12.4378 32.7589 13.3376 32.818C13.9542 32.8587 14.4671 33.2374 14.7097 33.762C15.1263 34.015 15.6799 34.5784 15.3281 35.7052C15.2818 35.8493 15.2188 35.9841 15.1392 36.1042ZM-18.404 36.5771L-18.4114 36.6251C-18.5558 37.5117 -19.3946 38.1158 -20.2834 37.9717C-21.1703 37.8295 -21.7757 36.9927 -21.6313 36.1042C-21.5961 35.8807 -21.6109 35.9638 -21.585 35.8548C-21.3684 34.9848 -20.4852 34.451 -19.6112 34.6652C-18.7558 34.874 -18.2244 35.7218 -18.404 36.5771ZM24.1323 36.2981C23.9268 35.6017 24.0935 34.9719 24.3564 34.5932C24.686 34.1166 25.3655 33.4646 26.7208 33.9781C26.8616 34.0316 26.9912 34.1018 27.1078 34.1868C27.4337 34.2829 27.6911 34.4528 27.8799 34.632C28.3113 35.0384 28.6965 35.7532 28.3317 36.8227C28.1318 37.4064 27.804 37.7334 27.5022 37.931C27.3337 38.0419 27.1597 38.1232 26.9819 38.1749C26.5616 38.367 26.1561 38.3799 25.8136 38.3208C25.1452 38.2118 24.5915 37.7703 24.3138 37.1589C24.1971 36.8985 24.1305 36.6029 24.1323 36.2981ZM40.9428 37.6207C40.9373 37.6189 40.9317 37.6189 40.9262 37.6189C40.0337 37.5154 39.2209 38.1546 39.1172 39.0467C39.0135 39.9371 39.6541 40.748 40.5484 40.8514C40.554 40.8514 40.5596 40.8514 40.5633 40.8533C41.4576 40.9567 42.2686 40.3176 42.3723 39.4273C42.4778 38.5351 41.8353 37.726 40.9428 37.6207ZM-29.5598 43.951C-29.5116 43.9972 -29.4672 44.0323 -29.4265 44.0619L-29.3283 44.1265C-29.2691 44.1598 -29.2376 44.1708 -29.2376 44.1708C-29.2376 44.1708 -29.2987 44.1394 -29.3802 44.0914L-29.4394 44.0526C-29.4616 44.0341 -29.4801 44.0175 -29.5024 44.0009L-29.5598 43.951ZM-29.4265 44.0619C-30.1634 43.5908 -30.3948 42.6155 -29.943 41.86C-29.482 41.0879 -28.4803 40.8385 -27.7063 41.2966C-27.3119 41.5331 -27.4601 41.4425 -27.2916 41.6143C-26.662 42.2572 -26.675 43.2879 -27.3175 43.9159C-27.8693 44.4516 -28.7043 44.52 -29.3283 44.1265C-29.3579 44.1099 -29.3894 44.0896 -29.4265 44.0619ZM32.5293 44.1376C32.0386 44.8543 31.061 45.063 30.3166 44.5975C29.5538 44.121 29.3223 43.1161 29.8 42.3551C30 42.0373 30.2833 41.7159 30.6147 41.5312C31.3961 41.086 32.3922 41.3613 32.8366 42.1426C33.218 42.8095 33.0699 43.6352 32.5293 44.1376ZM7.34222 43.3987C7.23668 43.8383 7.02189 44.2152 6.77378 44.4682C6.16646 45.0926 5.53692 45.172 5.01292 45.0889C4.62595 45.0279 4.24822 44.8506 3.92605 44.5366C3.58165 44.2004 3.2817 43.6278 3.17616 43.0459C2.96878 41.9025 3.58351 40.9364 4.22971 40.6316C4.58151 40.4654 5.13328 40.3102 5.81651 40.6132C6.38309 40.6649 6.97375 40.9844 7.27185 41.7787C7.557 42.2257 7.61625 42.8002 7.38295 43.3174L7.34222 43.3987ZM-8.88318 44.0212C-9.17943 43.6629 -9.35348 43.2103 -9.38495 42.6986C-9.41828 42.1131 -9.23127 41.4241 -8.89058 40.8884C-8.39806 40.1089 -7.61299 39.7006 -6.92421 39.6951C-6.33355 39.6933 -5.67254 39.9001 -5.13928 40.6741C-4.99301 40.8847 -4.90413 41.1193 -4.86895 41.3576C-4.67454 41.6143 -4.53012 41.9431 -4.51345 42.3643C-4.44124 42.4844 -4.38754 42.6081 -4.34311 42.7282C-4.17276 43.2066 -4.18757 43.709 -4.38199 44.1838C-4.75971 45.1184 -6.03174 45.9053 -7.21861 45.5876C-7.81852 45.4269 -8.50731 45.0205 -8.88318 44.0212ZM48.0621 46.2397C48.0751 46.2415 48.0862 46.2434 48.0936 46.2434C48.101 46.2452 48.1029 46.2452 48.1029 46.2452L48.0621 46.2397ZM48.051 46.2378L47.9973 46.2304C47.1086 46.0938 46.4957 45.2644 46.6309 44.3777C46.766 43.4892 47.5993 42.8778 48.488 43.0126C48.7047 43.0459 48.6232 43.0311 48.7361 43.057C49.6119 43.2583 50.16 44.1339 49.9582 45.0076C49.7619 45.8684 48.912 46.4096 48.051 46.2378ZM22.1437 47.7359C22.1808 47.7304 22.2234 47.7211 22.2752 47.7045C22.327 47.6916 22.3863 47.6694 22.4585 47.638C22.3567 47.6823 22.2511 47.7137 22.1437 47.7359ZM21.8734 47.7673C21.2198 47.7876 20.5921 47.4126 20.3199 46.7754C19.9681 45.9497 20.357 44.9947 21.1846 44.6419C21.4716 44.5218 21.592 44.52 21.6883 44.5107C21.8253 44.4978 22.1826 44.5384 22.1826 44.5384C22.1826 44.5384 22.1289 44.5236 22.053 44.5181C22.9492 44.5865 23.6213 45.3697 23.5528 46.2655C23.4861 47.1374 22.7418 47.795 21.8734 47.7673ZM-14.9434 46.5057C-14.8712 46.9102 -14.9508 47.3406 -15.1989 47.7063C-15.7062 48.4508 -16.7209 48.6429 -17.4652 48.1386C-17.867 47.867 -18.2244 47.3461 -18.3114 46.6849C-18.3947 46.0642 -18.1948 45.366 -18.0355 45.1018C-17.543 44.2817 -16.8135 44.193 -16.2451 44.3131C-15.9507 44.3777 -15.2267 44.5495 -14.9341 45.619C-14.8527 45.9201 -14.8601 46.2267 -14.9434 46.5057ZM-30.5374 49.79C-30.5689 49.7955 -30.6004 49.8029 -30.63 49.8084C-31.5132 49.9839 -32.0909 50.8392 -31.915 51.7203C-31.7409 52.6014 -30.8818 53.174 -30.0004 53.0022C-29.9671 52.9967 -29.9356 52.9893 -29.906 52.9838C-29.0228 52.8083 -28.447 51.953 -28.621 51.0719C-28.7951 50.1908 -29.6542 49.6163 -30.5374 49.79ZM-0.358505 49.0843C-0.215935 49.0585 -0.0696602 49.0492 0.0803185 49.0548C0.543213 49.0733 1.07092 49.2303 1.59121 49.7346C2.00226 50.1335 2.19297 50.5695 2.26148 50.9943C2.36147 51.6058 2.19667 52.2375 1.77266 52.7787C1.36716 53.2941 0.689487 53.7171 -0.00115204 53.8612C-0.588104 53.9849 -1.1732 53.9184 -1.66017 53.6801C-2.55448 53.2424 -2.93405 52.6125 -3.08958 52.0325C-3.26178 51.3878 -3.14328 50.7283 -2.85258 50.2037C-2.53781 49.6293 -2.02308 49.2469 -1.59721 49.0936C-1.16394 48.9403 -0.747337 48.9532 -0.382576 49.0751L-0.358505 49.0843ZM11.5212 48.6669C11.9267 48.545 12.3452 48.5283 12.734 48.6152C13.3987 48.7629 14.0838 49.1841 14.4782 50.1797C14.7485 50.8687 14.7189 51.4912 14.53 52.0177C14.3079 52.6457 13.832 53.1648 13.2099 53.4788L13.208 53.4806C12.5415 53.9443 11.7156 54.0662 11.0324 53.8298C10.7602 53.7356 10.4955 53.5933 10.2622 53.3754C9.89925 53.1537 9.57522 52.8434 9.33081 52.437C8.2032 50.5861 9.83444 48.6632 11.5212 48.6669ZM37.834 52.0398C37.7488 51.9512 37.6766 51.844 37.6137 51.7406C37.1508 50.9703 36.1472 50.7191 35.3751 51.1827C34.6049 51.6445 34.3531 52.6439 34.8159 53.4141C35.003 53.7226 35.2326 54.0329 35.4825 54.2952C36.1065 54.9418 37.1397 54.9621 37.7896 54.3396C38.4376 53.7171 38.458 52.6882 37.834 52.0398ZM-23.5495 53.8741C-23.5644 53.8907 -23.5792 53.9055 -23.5921 53.9221C-24.1754 54.6056 -24.0939 55.6326 -23.4088 56.2163C-22.7237 56.7982 -21.6924 56.7151 -21.1092 56.0316C-21.0962 56.0168 -21.0814 56.002 -21.0684 55.9854C-20.4852 55.302 -20.5666 54.2749 -21.2517 53.6931C-21.9368 53.1094 -22.9681 53.1906 -23.5495 53.8741ZM27.5874 56.5507C27.5263 57.1602 27.1226 57.7052 26.5061 57.9231C25.658 58.2205 24.7248 57.7753 24.4267 56.9293C24.349 56.7058 24.3582 56.0427 24.4101 55.8136C24.6138 54.9381 25.4914 54.395 26.369 54.5982C27.2448 54.8014 27.7911 55.6769 27.5874 56.5507ZM45.5014 58.7821L45.4885 58.7802C44.6053 58.6029 44.0331 57.7439 44.209 56.8628C44.3868 55.9836 45.2477 55.4109 46.131 55.5883C46.3254 55.6271 46.5309 55.6806 46.7142 55.7675C47.527 56.1535 47.8751 57.1233 47.49 57.9361C47.1327 58.686 46.2717 59.0388 45.5014 58.7821ZM-11.6439 59.1515C-11.6272 58.6251 -11.4754 57.9342 -11.1291 57.4133C-10.6681 56.7224 -9.96635 56.2921 -9.04982 56.3419C-8.22031 56.3881 -7.56856 57.0457 -7.51486 57.8511C-7.4445 58.0635 -7.40932 58.3018 -7.42043 58.5641C-7.43709 58.9428 -7.59077 59.4507 -7.88332 59.8978C-8.05367 60.2764 -8.3203 60.644 -8.58878 60.8675C-9.22202 61.394 -9.92747 61.4235 -10.4866 61.1945C-10.8514 61.0467 -11.2606 60.7659 -11.5087 60.1397C-11.6106 59.8793 -11.6605 59.5265 -11.6439 59.1515ZM30.9091 62.5152C30.985 62.53 31.061 62.5522 31.1369 62.5799C31.2109 62.6076 31.2831 62.639 31.3553 62.6796C31.1998 62.5928 31.0517 62.5411 30.9091 62.5152ZM14.8133 60.415C15.6799 60.5461 16.2909 61.3423 16.1872 62.2178C16.078 63.11 15.2651 63.7454 14.3708 63.6383C13.7116 63.5589 13.0821 63.3372 12.6396 62.7941C12.0693 62.0978 12.1748 61.0726 12.8729 60.5055C13.4413 60.0418 14.2319 60.0252 14.8133 60.415ZM-23.9995 60.9266H-24.005C-24.903 60.8306 -25.7048 61.4771 -25.8011 62.3711C-25.8973 63.2633 -25.2493 64.0669 -24.3531 64.1629H-24.3476C-23.4514 64.2571 -22.6478 63.6106 -22.5534 62.7166C-22.4553 61.8244 -23.1052 61.0208 -23.9995 60.9266ZM5.53507 61.8502C5.35917 61.7745 5.18327 61.7376 5.00922 61.6618C4.18342 61.3072 3.22245 61.6877 2.86509 62.5115C2.50774 63.3354 2.88916 64.2941 3.71497 64.6506C3.88346 64.7226 4.05566 64.7558 4.22601 64.8297C5.04811 65.1899 6.01278 64.815 6.37384 63.993C6.7349 63.171 6.35903 62.2104 5.53507 61.8502ZM29.6056 62.7978C29.9185 62.4931 30.2277 62.4303 30.3907 62.397C30.7369 62.3231 31.0443 62.3656 31.3183 62.4709C31.7164 62.6242 32.2515 62.9918 32.3533 63.7639C32.5552 64.1518 32.6015 64.6173 32.4404 65.0606C32.1386 65.9066 31.2035 66.3463 30.3555 66.0433C29.5649 65.7607 29.2575 65.3137 29.1094 64.972C29.0261 64.7817 28.9538 64.549 28.952 64.2756C28.915 63.9283 28.9909 63.5681 29.1871 63.2486C29.3001 63.0694 29.4427 62.9179 29.6056 62.7978ZM43.4054 65.0625C43.3869 65.0496 43.3684 65.0366 43.3517 65.0218C42.6222 64.4936 41.602 64.6524 41.0706 65.3784C40.541 66.1043 40.7021 67.1239 41.4298 67.6522C41.4465 67.6652 41.4668 67.6799 41.4853 67.6929C42.2112 68.2212 43.2332 68.0623 43.7628 67.3364C44.2923 66.6104 44.1331 65.5926 43.4054 65.0625ZM-13.2714 65.3045C-13.314 65.31 -13.2881 65.3063 -13.3473 65.3119C-14.2435 65.4024 -14.8971 66.2004 -14.8082 67.0944C-14.7175 67.9866 -13.9158 68.6386 -13.0215 68.55C-12.8344 68.5315 -12.9141 68.5407 -12.7845 68.5204C-11.892 68.3856 -11.2791 67.5562 -11.4161 66.6677C-11.5513 65.781 -12.3827 65.1696 -13.2714 65.3045ZM-2.69335 71.1859L-2.74889 71.1545C-2.73038 71.1656 -2.71001 71.1748 -2.69335 71.1859ZM-3.95427 71.3004C-4.5764 70.314 -4.25052 69.13 -3.55618 68.5315C-2.98034 68.0328 -2.09344 67.7464 -1.06396 68.3671C-0.743633 68.5592 -0.514038 68.8474 -0.386276 69.1688C-0.33073 69.2371 -0.280739 69.3073 -0.234451 69.383C-0.0529938 69.6767 0.274734 70.3029 -0.256668 71.2302C-0.556622 71.7548 -1.01026 72.0984 -1.50278 72.2554C-1.73423 72.3773 -2.00085 72.4457 -2.2823 72.442C-3.42287 72.4272 -3.79874 71.777 -3.95427 71.3004ZM36.1139 72.6895H36.1121C36.1121 72.6895 36.1435 72.7098 36.1583 72.7191L36.1139 72.6895ZM26.9504 71.1822C27.1115 72.0541 26.5412 72.8964 25.6673 73.07C24.7841 73.2474 23.9231 72.6747 23.7491 71.7936C23.725 71.6791 23.7379 71.7585 23.7102 71.5572C23.5935 70.665 24.2231 69.8467 25.1137 69.7285C26.0061 69.6121 26.8264 70.2383 26.9449 71.1286L26.9504 71.1822ZM12.2174 71.8121C12.2378 72.0836 12.1952 72.4032 12.06 72.7782C11.7175 73.7239 11.1102 73.9733 10.7602 74.0694C10.1529 74.2356 9.53448 74.11 9.02715 73.5725C8.74016 73.2695 8.42168 72.6193 8.44946 71.8952C8.49019 70.8035 9.12899 69.7174 10.6065 69.6564C11.5046 69.6176 12.2693 70.314 12.3063 71.2118C12.3156 71.4223 12.2841 71.6255 12.2174 71.8121ZM33.6569 74.3206C33.6458 74.2171 33.6439 74.1137 33.6532 74.0102C33.6624 73.9068 33.6809 73.7997 33.7124 73.6981C33.6439 73.9308 33.6346 74.1358 33.6569 74.3206ZM-17.7689 73.2381L-17.7522 73.1624C-17.5837 72.2794 -18.1633 71.426 -19.0483 71.2561C-19.9316 71.088 -20.787 71.6662 -20.9573 72.5473C-20.9629 72.5713 -20.9666 72.5971 -20.9721 72.6249C-21.1406 73.506 -20.5629 74.3594 -19.6779 74.5293C-18.7947 74.6992 -17.9393 74.1192 -17.7689 73.2381ZM33.9161 75.0391C33.4791 74.4831 33.4439 73.6833 33.8791 73.0811C34.3993 72.3681 35.3899 72.2 36.1139 72.6895C36.138 72.7135 36.6675 73.1975 36.786 73.4819C36.9101 73.7812 36.9786 74.1377 36.8471 74.5976C36.5972 75.4603 35.6917 75.959 34.8271 75.7115C34.4364 75.5988 34.1216 75.3531 33.9161 75.0391ZM1.79858 76.1234C1.73563 76.177 1.67823 76.2306 1.62639 76.286C1.57455 76.3432 1.53011 76.4042 1.49122 76.467C1.57455 76.3395 1.67823 76.225 1.79858 76.1234ZM1.43938 76.5594C1.38013 76.6739 1.33939 76.8013 1.32273 76.9417C1.30606 77.0803 1.30977 77.2317 1.33384 77.3961C1.2931 77.1024 1.33384 76.8161 1.43938 76.5594ZM-8.02034 75.0243C-8.08885 75.0243 -8.15736 75.0262 -8.22587 75.0262C-9.12573 75.0336 -9.85155 75.7669 -9.84415 76.6646C-9.83859 77.5624 -9.10166 78.2865 -8.2018 78.2809C-8.12958 78.2791 -8.05737 78.2791 -7.98701 78.2791C-7.08715 78.2699 -6.36318 77.5328 -6.37243 76.6369C-6.38169 75.7374 -7.12047 75.017 -8.02034 75.0243ZM20.7495 76.0477C21.0458 76.7219 20.8495 77.5365 20.2348 77.9983C19.5163 78.5377 18.4924 78.3936 17.9518 77.6769C17.6796 77.3167 17.7666 77.5679 17.6185 76.9473C17.4093 76.0754 17.9499 75.1943 18.8276 74.9874C19.6515 74.7916 20.4829 75.2589 20.7495 76.0477ZM1.45049 76.5298C1.65601 76.0514 2.08743 75.6801 2.63735 75.5711C3.52241 75.4012 4.37969 75.9775 4.55188 76.8586C4.71112 77.6898 4.41302 78.2329 3.82421 78.6744C3.10395 79.2138 2.08187 79.0678 1.54121 78.3493C1.13017 77.8025 1.11535 77.0821 1.45049 76.5298Z" fill="black"/>
</svg>
